%TF.GenerationSoftware,KiCad,Pcbnew,9.0.5*%
%TF.CreationDate,2025-10-23T14:27:27-03:00*%
%TF.ProjectId,PRUEBA-KICAD,50525545-4241-42d4-9b49-4341442e6b69,rev?*%
%TF.SameCoordinates,Original*%
%TF.FileFunction,Drillmap*%
%TF.FilePolarity,Positive*%
%FSLAX45Y45*%
G04 Gerber Fmt 4.5, Leading zero omitted, Abs format (unit mm)*
G04 Created by KiCad (PCBNEW 9.0.5) date 2025-10-23 14:27:27*
%MOMM*%
%LPD*%
G01*
G04 APERTURE LIST*
%ADD10C,0.050000*%
%ADD11C,0.200000*%
G04 APERTURE END LIST*
D10*
X10450000Y-5040000D02*
X9300000Y-5040000D01*
X10450000Y-9800000D02*
X9300000Y-9800000D01*
X20110000Y-5040000D02*
X10450000Y-5040000D01*
X9300000Y-5320000D02*
X9300000Y-5040000D01*
X20110000Y-9800000D02*
X20110000Y-5040000D01*
X10450000Y-9800000D02*
X20110000Y-9800000D01*
X9300000Y-5320000D02*
X9300000Y-9800000D01*
D11*
X9558277Y-10113984D02*
X9558277Y-9913984D01*
X9558277Y-9913984D02*
X9605896Y-9913984D01*
X9605896Y-9913984D02*
X9634467Y-9923508D01*
X9634467Y-9923508D02*
X9653515Y-9942555D01*
X9653515Y-9942555D02*
X9663039Y-9961603D01*
X9663039Y-9961603D02*
X9672563Y-9999698D01*
X9672563Y-9999698D02*
X9672563Y-10028270D01*
X9672563Y-10028270D02*
X9663039Y-10066365D01*
X9663039Y-10066365D02*
X9653515Y-10085412D01*
X9653515Y-10085412D02*
X9634467Y-10104460D01*
X9634467Y-10104460D02*
X9605896Y-10113984D01*
X9605896Y-10113984D02*
X9558277Y-10113984D01*
X9758277Y-10113984D02*
X9758277Y-9980650D01*
X9758277Y-10018746D02*
X9767801Y-9999698D01*
X9767801Y-9999698D02*
X9777324Y-9990174D01*
X9777324Y-9990174D02*
X9796372Y-9980650D01*
X9796372Y-9980650D02*
X9815420Y-9980650D01*
X9882086Y-10113984D02*
X9882086Y-9980650D01*
X9882086Y-9913984D02*
X9872563Y-9923508D01*
X9872563Y-9923508D02*
X9882086Y-9933031D01*
X9882086Y-9933031D02*
X9891610Y-9923508D01*
X9891610Y-9923508D02*
X9882086Y-9913984D01*
X9882086Y-9913984D02*
X9882086Y-9933031D01*
X10005896Y-10113984D02*
X9986848Y-10104460D01*
X9986848Y-10104460D02*
X9977324Y-10085412D01*
X9977324Y-10085412D02*
X9977324Y-9913984D01*
X10110658Y-10113984D02*
X10091610Y-10104460D01*
X10091610Y-10104460D02*
X10082086Y-10085412D01*
X10082086Y-10085412D02*
X10082086Y-9913984D01*
X10339229Y-10113984D02*
X10339229Y-9913984D01*
X10339229Y-9913984D02*
X10405896Y-10056841D01*
X10405896Y-10056841D02*
X10472563Y-9913984D01*
X10472563Y-9913984D02*
X10472563Y-10113984D01*
X10653515Y-10113984D02*
X10653515Y-10009222D01*
X10653515Y-10009222D02*
X10643991Y-9990174D01*
X10643991Y-9990174D02*
X10624944Y-9980650D01*
X10624944Y-9980650D02*
X10586848Y-9980650D01*
X10586848Y-9980650D02*
X10567801Y-9990174D01*
X10653515Y-10104460D02*
X10634467Y-10113984D01*
X10634467Y-10113984D02*
X10586848Y-10113984D01*
X10586848Y-10113984D02*
X10567801Y-10104460D01*
X10567801Y-10104460D02*
X10558277Y-10085412D01*
X10558277Y-10085412D02*
X10558277Y-10066365D01*
X10558277Y-10066365D02*
X10567801Y-10047317D01*
X10567801Y-10047317D02*
X10586848Y-10037793D01*
X10586848Y-10037793D02*
X10634467Y-10037793D01*
X10634467Y-10037793D02*
X10653515Y-10028270D01*
X10748753Y-9980650D02*
X10748753Y-10180650D01*
X10748753Y-9990174D02*
X10767801Y-9980650D01*
X10767801Y-9980650D02*
X10805896Y-9980650D01*
X10805896Y-9980650D02*
X10824944Y-9990174D01*
X10824944Y-9990174D02*
X10834467Y-9999698D01*
X10834467Y-9999698D02*
X10843991Y-10018746D01*
X10843991Y-10018746D02*
X10843991Y-10075889D01*
X10843991Y-10075889D02*
X10834467Y-10094936D01*
X10834467Y-10094936D02*
X10824944Y-10104460D01*
X10824944Y-10104460D02*
X10805896Y-10113984D01*
X10805896Y-10113984D02*
X10767801Y-10113984D01*
X10767801Y-10113984D02*
X10748753Y-10104460D01*
X10929705Y-10094936D02*
X10939229Y-10104460D01*
X10939229Y-10104460D02*
X10929705Y-10113984D01*
X10929705Y-10113984D02*
X10920182Y-10104460D01*
X10920182Y-10104460D02*
X10929705Y-10094936D01*
X10929705Y-10094936D02*
X10929705Y-10113984D01*
X10929705Y-9990174D02*
X10939229Y-9999698D01*
X10939229Y-9999698D02*
X10929705Y-10009222D01*
X10929705Y-10009222D02*
X10920182Y-9999698D01*
X10920182Y-9999698D02*
X10929705Y-9990174D01*
X10929705Y-9990174D02*
X10929705Y-10009222D01*
M02*
