%TF.GenerationSoftware,KiCad,Pcbnew,9.0.5*%
%TF.CreationDate,2025-11-20T10:49:43-03:00*%
%TF.ProjectId,smd prueba,736d6420-7072-4756-9562-612e6b696361,rev?*%
%TF.SameCoordinates,Original*%
%TF.FileFunction,Legend,Top*%
%TF.FilePolarity,Positive*%
%FSLAX46Y46*%
G04 Gerber Fmt 4.6, Leading zero omitted, Abs format (unit mm)*
G04 Created by KiCad (PCBNEW 9.0.5) date 2025-11-20 10:49:43*
%MOMM*%
%LPD*%
G01*
G04 APERTURE LIST*
%ADD10C,0.150000*%
%ADD11C,0.120000*%
%ADD12C,0.200000*%
G04 APERTURE END LIST*
D10*
X170016666Y-110044819D02*
X170016666Y-110759104D01*
X170016666Y-110759104D02*
X169969047Y-110901961D01*
X169969047Y-110901961D02*
X169873809Y-110997200D01*
X169873809Y-110997200D02*
X169730952Y-111044819D01*
X169730952Y-111044819D02*
X169635714Y-111044819D01*
X170445238Y-110140057D02*
X170492857Y-110092438D01*
X170492857Y-110092438D02*
X170588095Y-110044819D01*
X170588095Y-110044819D02*
X170826190Y-110044819D01*
X170826190Y-110044819D02*
X170921428Y-110092438D01*
X170921428Y-110092438D02*
X170969047Y-110140057D01*
X170969047Y-110140057D02*
X171016666Y-110235295D01*
X171016666Y-110235295D02*
X171016666Y-110330533D01*
X171016666Y-110330533D02*
X170969047Y-110473390D01*
X170969047Y-110473390D02*
X170397619Y-111044819D01*
X170397619Y-111044819D02*
X171016666Y-111044819D01*
D11*
%TO.C,U2*%
X126027500Y-94330000D02*
X126297500Y-94330000D01*
X126027500Y-100750000D02*
X126027500Y-94330000D01*
X132927500Y-94330000D02*
X132657500Y-94330000D01*
X132927500Y-100750000D02*
X132927500Y-94330000D01*
X133087500Y-92940000D02*
X132617500Y-92600000D01*
X133087500Y-92260000D01*
X133087500Y-92940000D01*
G36*
X133087500Y-92940000D02*
G01*
X132617500Y-92600000D01*
X133087500Y-92260000D01*
X133087500Y-92940000D01*
G37*
%TO.C,U3*%
D12*
X133747500Y-80515000D02*
X170947500Y-80515000D01*
X170947500Y-97715000D01*
X133747500Y-97715000D01*
X133747500Y-80515000D01*
D11*
%TO.C,J1*%
X159645000Y-100300000D02*
X159645000Y-106500000D01*
X160770000Y-106500000D02*
X159645000Y-106500000D01*
X160770000Y-106500000D02*
X160770000Y-107900000D01*
X161220000Y-100300000D02*
X171745000Y-100300000D01*
X162320000Y-106500000D02*
X162320000Y-107900000D01*
X164720000Y-106500000D02*
X162320000Y-106500000D01*
X167720000Y-106500000D02*
X166370000Y-106500000D01*
X171745000Y-100900000D02*
X171745000Y-100300000D01*
X171745000Y-100900000D02*
X173745000Y-100900000D01*
X171745000Y-105900000D02*
X173745000Y-105900000D01*
X171745000Y-106500000D02*
X169370000Y-106500000D01*
X171745000Y-106500000D02*
X171745000Y-105900000D01*
X173745000Y-105900000D02*
X173745000Y-100900000D01*
%TO.C,caplm1*%
X131015000Y-86188748D02*
X131015000Y-86711252D01*
X132485000Y-86188748D02*
X132485000Y-86711252D01*
%TO.C,R5*%
X158390000Y-114477064D02*
X158390000Y-113022936D01*
X160210000Y-114477064D02*
X160210000Y-113022936D01*
%TO.C,R3*%
X144122936Y-105840000D02*
X145577064Y-105840000D01*
X144122936Y-107660000D02*
X145577064Y-107660000D01*
%TO.C,MK1*%
X130400000Y-110282500D02*
X130400000Y-109982500D01*
X130400000Y-110282500D02*
X130400000Y-110582500D01*
X130700000Y-110282500D02*
X130100000Y-110282500D01*
X131610000Y-106932500D02*
G75*
G02*
X125390000Y-106932500I-3110000J0D01*
G01*
X125390000Y-106932500D02*
G75*
G02*
X131610000Y-106932500I3110000J0D01*
G01*
%TO.C,C3*%
X137690000Y-104490000D02*
X138890000Y-104490000D01*
X137690000Y-107945563D02*
X137690000Y-104490000D01*
X138140000Y-109500000D02*
X138640000Y-109500000D01*
X138390000Y-109750000D02*
X138390000Y-109250000D01*
X138754437Y-109010000D02*
X137690000Y-107945563D01*
X138754437Y-109010000D02*
X138890000Y-109010000D01*
X141145563Y-109010000D02*
X141010000Y-109010000D01*
X141145563Y-109010000D02*
X142210000Y-107945563D01*
X142210000Y-104490000D02*
X141010000Y-104490000D01*
X142210000Y-107945563D02*
X142210000Y-104490000D01*
%TO.C,Ralimentacion1*%
X153890000Y-103677064D02*
X153890000Y-102222936D01*
X155710000Y-103677064D02*
X155710000Y-102222936D01*
%TO.C,C1*%
X145765000Y-109888748D02*
X145765000Y-110411252D01*
X147235000Y-109888748D02*
X147235000Y-110411252D01*
%TO.C,J2*%
X169605000Y-111465000D02*
X170350000Y-111465000D01*
X169605000Y-112200000D02*
X169605000Y-111465000D01*
X169605000Y-112935000D02*
X169605000Y-112810000D01*
X169605000Y-112935000D02*
X169664435Y-112935000D01*
X169605000Y-112935000D02*
X171095000Y-112935000D01*
X171035565Y-112935000D02*
X171095000Y-112935000D01*
X171095000Y-112935000D02*
X171095000Y-112810000D01*
%TO.C,C5*%
X161300000Y-110640000D02*
X161800000Y-110640000D01*
X161550000Y-110390000D02*
X161550000Y-110890000D01*
X162040000Y-111004437D02*
X162040000Y-111140000D01*
X162040000Y-111004437D02*
X163104437Y-109940000D01*
X162040000Y-113395563D02*
X162040000Y-113260000D01*
X162040000Y-113395563D02*
X163104437Y-114460000D01*
X163104437Y-109940000D02*
X166560000Y-109940000D01*
X163104437Y-114460000D02*
X166560000Y-114460000D01*
X166560000Y-109940000D02*
X166560000Y-111140000D01*
X166560000Y-114460000D02*
X166560000Y-113260000D01*
%TO.C,U1*%
X147380000Y-101110000D02*
X147475000Y-101110000D01*
X147380000Y-105230000D02*
X147380000Y-101110000D01*
X147475000Y-105230000D02*
X147380000Y-105230000D01*
X152405000Y-101110000D02*
X152500000Y-101110000D01*
X152500000Y-101110000D02*
X152500000Y-105230000D01*
X152500000Y-105230000D02*
X152405000Y-105230000D01*
X147470000Y-105770000D02*
X147140000Y-106010000D01*
X147140000Y-105530000D01*
X147470000Y-105770000D01*
G36*
X147470000Y-105770000D02*
G01*
X147140000Y-106010000D01*
X147140000Y-105530000D01*
X147470000Y-105770000D01*
G37*
%TO.C,caplm7809*%
X128511252Y-84765000D02*
X127988748Y-84765000D01*
X128511252Y-86235000D02*
X127988748Y-86235000D01*
%TO.C,RP2*%
X147790000Y-111027064D02*
X147790000Y-109572936D01*
X149610000Y-111027064D02*
X149610000Y-109572936D01*
%TO.C,RP3*%
X150240000Y-111027064D02*
X150240000Y-109572936D01*
X152060000Y-111027064D02*
X152060000Y-109572936D01*
%TO.C,C2*%
X152590000Y-109954437D02*
X152590000Y-113410000D01*
X152590000Y-113410000D02*
X153790000Y-113410000D01*
X153654437Y-108890000D02*
X152590000Y-109954437D01*
X153654437Y-108890000D02*
X153790000Y-108890000D01*
X156045563Y-108890000D02*
X155910000Y-108890000D01*
X156045563Y-108890000D02*
X157110000Y-109954437D01*
X156410000Y-108150000D02*
X156410000Y-108650000D01*
X156660000Y-108400000D02*
X156160000Y-108400000D01*
X157110000Y-109954437D02*
X157110000Y-113410000D01*
X157110000Y-113410000D02*
X155910000Y-113410000D01*
%TO.C,Rpolarizadordeelectret1*%
X134890000Y-102127064D02*
X134890000Y-100672936D01*
X136710000Y-102127064D02*
X136710000Y-100672936D01*
%TO.C,Calimentacion1*%
X157265000Y-102761252D02*
X157265000Y-102238748D01*
X158735000Y-102761252D02*
X158735000Y-102238748D01*
%TD*%
M02*
