%TF.GenerationSoftware,KiCad,Pcbnew,9.0.5*%
%TF.CreationDate,2025-11-20T10:49:43-03:00*%
%TF.ProjectId,smd prueba,736d6420-7072-4756-9562-612e6b696361,rev?*%
%TF.SameCoordinates,Original*%
%TF.FileFunction,Paste,Top*%
%TF.FilePolarity,Positive*%
%FSLAX46Y46*%
G04 Gerber Fmt 4.6, Leading zero omitted, Abs format (unit mm)*
G04 Created by KiCad (PCBNEW 9.0.5) date 2025-11-20 10:49:43*
%MOMM*%
%LPD*%
G01*
G04 APERTURE LIST*
G04 Aperture macros list*
%AMRoundRect*
0 Rectangle with rounded corners*
0 $1 Rounding radius*
0 $2 $3 $4 $5 $6 $7 $8 $9 X,Y pos of 4 corners*
0 Add a 4 corners polygon primitive as box body*
4,1,4,$2,$3,$4,$5,$6,$7,$8,$9,$2,$3,0*
0 Add four circle primitives for the rounded corners*
1,1,$1+$1,$2,$3*
1,1,$1+$1,$4,$5*
1,1,$1+$1,$6,$7*
1,1,$1+$1,$8,$9*
0 Add four rect primitives between the rounded corners*
20,1,$1+$1,$2,$3,$4,$5,0*
20,1,$1+$1,$4,$5,$6,$7,0*
20,1,$1+$1,$6,$7,$8,$9,0*
20,1,$1+$1,$8,$9,$2,$3,0*%
G04 Aperture macros list end*
%ADD10RoundRect,0.250000X-1.125000X1.275000X-1.125000X-1.275000X1.125000X-1.275000X1.125000X1.275000X0*%
%ADD11RoundRect,0.250000X-0.350000X0.850000X-0.350000X-0.850000X0.350000X-0.850000X0.350000X0.850000X0*%
%ADD12R,1.200000X2.500000*%
%ADD13RoundRect,0.250000X-0.475000X0.337500X-0.475000X-0.337500X0.475000X-0.337500X0.475000X0.337500X0*%
%ADD14RoundRect,0.250000X0.625000X-0.400000X0.625000X0.400000X-0.625000X0.400000X-0.625000X-0.400000X0*%
%ADD15RoundRect,0.250000X-0.400000X-0.625000X0.400000X-0.625000X0.400000X0.625000X-0.400000X0.625000X0*%
%ADD16RoundRect,0.250000X0.550000X-1.050000X0.550000X1.050000X-0.550000X1.050000X-0.550000X-1.050000X0*%
%ADD17RoundRect,0.250000X-1.050000X-0.550000X1.050000X-0.550000X1.050000X0.550000X-1.050000X0.550000X0*%
%ADD18RoundRect,0.150000X0.150000X-0.825000X0.150000X0.825000X-0.150000X0.825000X-0.150000X-0.825000X0*%
%ADD19RoundRect,0.250000X0.337500X0.475000X-0.337500X0.475000X-0.337500X-0.475000X0.337500X-0.475000X0*%
%ADD20RoundRect,0.250000X-0.550000X1.050000X-0.550000X-1.050000X0.550000X-1.050000X0.550000X1.050000X0*%
%ADD21RoundRect,0.250000X0.475000X-0.337500X0.475000X0.337500X-0.475000X0.337500X-0.475000X-0.337500X0*%
G04 APERTURE END LIST*
D10*
%TO.C,U2*%
X131002500Y-97225000D03*
X127952500Y-97225000D03*
X131002500Y-100575000D03*
X127952500Y-100575000D03*
D11*
X131757500Y-92600000D03*
X127197500Y-92600000D03*
%TD*%
D12*
%TO.C,J1*%
X165545000Y-106650000D03*
X168545000Y-106650000D03*
X160445000Y-100150000D03*
X161545000Y-106650000D03*
%TD*%
D13*
%TO.C,caplm1*%
X131750000Y-85412500D03*
X131750000Y-87487500D03*
%TD*%
D14*
%TO.C,R5*%
X159300000Y-115300000D03*
X159300000Y-112200000D03*
%TD*%
D15*
%TO.C,R3*%
X143300000Y-106750000D03*
X146400000Y-106750000D03*
%TD*%
D16*
%TO.C,C3*%
X139950000Y-108550000D03*
X139950000Y-104950000D03*
%TD*%
D14*
%TO.C,Ralimentacion1*%
X154800000Y-104500000D03*
X154800000Y-101400000D03*
%TD*%
D13*
%TO.C,C1*%
X146500000Y-109112500D03*
X146500000Y-111187500D03*
%TD*%
D17*
%TO.C,C5*%
X162500000Y-112200000D03*
X166100000Y-112200000D03*
%TD*%
D18*
%TO.C,U1*%
X148035000Y-105645000D03*
X149305000Y-105645000D03*
X150575000Y-105645000D03*
X151845000Y-105645000D03*
X151845000Y-100695000D03*
X150575000Y-100695000D03*
X149305000Y-100695000D03*
X148035000Y-100695000D03*
%TD*%
D19*
%TO.C,caplm7809*%
X129287500Y-85500000D03*
X127212500Y-85500000D03*
%TD*%
D14*
%TO.C,RP2*%
X148700000Y-111850000D03*
X148700000Y-108750000D03*
%TD*%
%TO.C,RP3*%
X151150000Y-111850000D03*
X151150000Y-108750000D03*
%TD*%
D20*
%TO.C,C2*%
X154850000Y-109350000D03*
X154850000Y-112950000D03*
%TD*%
D14*
%TO.C,Rpolarizadordeelectret1*%
X135800000Y-102950000D03*
X135800000Y-99850000D03*
%TD*%
D21*
%TO.C,Calimentacion1*%
X158000000Y-103537500D03*
X158000000Y-101462500D03*
%TD*%
M02*
