%TF.GenerationSoftware,KiCad,Pcbnew,9.0.5*%
%TF.CreationDate,2025-11-20T10:49:43-03:00*%
%TF.ProjectId,smd prueba,736d6420-7072-4756-9562-612e6b696361,rev?*%
%TF.SameCoordinates,Original*%
%TF.FileFunction,Copper,L1,Top*%
%TF.FilePolarity,Positive*%
%FSLAX46Y46*%
G04 Gerber Fmt 4.6, Leading zero omitted, Abs format (unit mm)*
G04 Created by KiCad (PCBNEW 9.0.5) date 2025-11-20 10:49:43*
%MOMM*%
%LPD*%
G01*
G04 APERTURE LIST*
G04 Aperture macros list*
%AMRoundRect*
0 Rectangle with rounded corners*
0 $1 Rounding radius*
0 $2 $3 $4 $5 $6 $7 $8 $9 X,Y pos of 4 corners*
0 Add a 4 corners polygon primitive as box body*
4,1,4,$2,$3,$4,$5,$6,$7,$8,$9,$2,$3,0*
0 Add four circle primitives for the rounded corners*
1,1,$1+$1,$2,$3*
1,1,$1+$1,$4,$5*
1,1,$1+$1,$6,$7*
1,1,$1+$1,$8,$9*
0 Add four rect primitives between the rounded corners*
20,1,$1+$1,$2,$3,$4,$5,0*
20,1,$1+$1,$4,$5,$6,$7,0*
20,1,$1+$1,$6,$7,$8,$9,0*
20,1,$1+$1,$8,$9,$2,$3,0*%
G04 Aperture macros list end*
%TA.AperFunction,SMDPad,CuDef*%
%ADD10RoundRect,0.250000X-0.350000X0.850000X-0.350000X-0.850000X0.350000X-0.850000X0.350000X0.850000X0*%
%TD*%
%TA.AperFunction,SMDPad,CuDef*%
%ADD11RoundRect,0.249997X-2.650003X2.950003X-2.650003X-2.950003X2.650003X-2.950003X2.650003X2.950003X0*%
%TD*%
%TA.AperFunction,ComponentPad*%
%ADD12R,5.400000X4.000000*%
%TD*%
%TA.AperFunction,SMDPad,CuDef*%
%ADD13R,1.200000X2.500000*%
%TD*%
%TA.AperFunction,SMDPad,CuDef*%
%ADD14RoundRect,0.250000X-0.475000X0.337500X-0.475000X-0.337500X0.475000X-0.337500X0.475000X0.337500X0*%
%TD*%
%TA.AperFunction,SMDPad,CuDef*%
%ADD15RoundRect,0.250000X0.625000X-0.400000X0.625000X0.400000X-0.625000X0.400000X-0.625000X-0.400000X0*%
%TD*%
%TA.AperFunction,SMDPad,CuDef*%
%ADD16RoundRect,0.250000X-0.400000X-0.625000X0.400000X-0.625000X0.400000X0.625000X-0.400000X0.625000X0*%
%TD*%
%TA.AperFunction,ComponentPad*%
%ADD17RoundRect,0.250000X-0.250000X0.250000X-0.250000X-0.250000X0.250000X-0.250000X0.250000X0.250000X0*%
%TD*%
%TA.AperFunction,ComponentPad*%
%ADD18C,1.250000*%
%TD*%
%TA.AperFunction,SMDPad,CuDef*%
%ADD19RoundRect,0.250000X0.550000X-1.050000X0.550000X1.050000X-0.550000X1.050000X-0.550000X-1.050000X0*%
%TD*%
%TA.AperFunction,ComponentPad*%
%ADD20R,0.850000X0.850000*%
%TD*%
%TA.AperFunction,SMDPad,CuDef*%
%ADD21RoundRect,0.250000X-1.050000X-0.550000X1.050000X-0.550000X1.050000X0.550000X-1.050000X0.550000X0*%
%TD*%
%TA.AperFunction,SMDPad,CuDef*%
%ADD22RoundRect,0.150000X0.150000X-0.825000X0.150000X0.825000X-0.150000X0.825000X-0.150000X-0.825000X0*%
%TD*%
%TA.AperFunction,SMDPad,CuDef*%
%ADD23RoundRect,0.250000X0.337500X0.475000X-0.337500X0.475000X-0.337500X-0.475000X0.337500X-0.475000X0*%
%TD*%
%TA.AperFunction,SMDPad,CuDef*%
%ADD24RoundRect,0.250000X-0.550000X1.050000X-0.550000X-1.050000X0.550000X-1.050000X0.550000X1.050000X0*%
%TD*%
%TA.AperFunction,SMDPad,CuDef*%
%ADD25RoundRect,0.250000X0.475000X-0.337500X0.475000X0.337500X-0.475000X0.337500X-0.475000X-0.337500X0*%
%TD*%
%TA.AperFunction,Conductor*%
%ADD26C,0.500000*%
%TD*%
G04 APERTURE END LIST*
D10*
%TO.P,U2,1,VI*%
%TO.N,Net-(U2-VI)*%
X131757500Y-92600000D03*
D11*
%TO.P,U2,2,GND*%
%TO.N,GND*%
X129477500Y-98900000D03*
D10*
%TO.P,U2,3,VO*%
%TO.N,Net-(U1-V+)*%
X127197500Y-92600000D03*
%TD*%
D12*
%TO.P,U3,1,1_VIN+*%
%TO.N,Net-(U3-1_VIN+)*%
X167987267Y-85460774D03*
%TO.P,U3,2,2_VIN-*%
%TO.N,GND*%
X167993644Y-92712035D03*
%TO.P,U3,3,3_VOUT+*%
%TO.N,Net-(U2-VI)*%
X136682831Y-85457240D03*
%TO.P,U3,4,4_VOUT-*%
%TO.N,GND*%
X136690554Y-92661590D03*
%TD*%
D13*
%TO.P,J1,R1*%
%TO.N,Net-(U3-1_VIN+)*%
X165545000Y-106650000D03*
%TO.P,J1,R2*%
%TO.N,GND*%
X168545000Y-106650000D03*
%TO.P,J1,S*%
X160445000Y-100150000D03*
%TO.P,J1,T*%
%TO.N,Net-(J2-Pin_1)*%
X161545000Y-106650000D03*
%TD*%
D14*
%TO.P,caplm1,1*%
%TO.N,GND*%
X131750000Y-85412500D03*
%TO.P,caplm1,2*%
%TO.N,Net-(U2-VI)*%
X131750000Y-87487500D03*
%TD*%
D15*
%TO.P,R5,1*%
%TO.N,Net-(C1-Pad2)*%
X159300000Y-115300000D03*
%TO.P,R5,2*%
%TO.N,Net-(C5-Pad1)*%
X159300000Y-112200000D03*
%TD*%
D16*
%TO.P,R3,1*%
%TO.N,Net-(C3-Pad1)*%
X143300000Y-106750000D03*
%TO.P,R3,2*%
%TO.N,Net-(U1--)*%
X146400000Y-106750000D03*
%TD*%
D17*
%TO.P,MK1,1,-*%
%TO.N,GND*%
X129500000Y-105982500D03*
D18*
%TO.P,MK1,2,+*%
%TO.N,Net-(MK1-+)*%
X129500000Y-107882500D03*
%TD*%
D19*
%TO.P,C3,1*%
%TO.N,Net-(C3-Pad1)*%
X139950000Y-108550000D03*
%TO.P,C3,2*%
%TO.N,Net-(MK1-+)*%
X139950000Y-104950000D03*
%TD*%
D15*
%TO.P,Ralimentacion1,1*%
%TO.N,Net-(U1-+)*%
X154800000Y-104500000D03*
%TO.P,Ralimentacion1,2*%
%TO.N,Net-(U1-V+)*%
X154800000Y-101400000D03*
%TD*%
D14*
%TO.P,C1,1*%
%TO.N,Net-(U1--)*%
X146500000Y-109112500D03*
%TO.P,C1,2*%
%TO.N,Net-(C1-Pad2)*%
X146500000Y-111187500D03*
%TD*%
D20*
%TO.P,J2,1,Pin_1*%
%TO.N,Net-(J2-Pin_1)*%
X170350000Y-112200000D03*
%TD*%
D21*
%TO.P,C5,1*%
%TO.N,Net-(C5-Pad1)*%
X162500000Y-112200000D03*
%TO.P,C5,2*%
%TO.N,Net-(J2-Pin_1)*%
X166100000Y-112200000D03*
%TD*%
D22*
%TO.P,U1,1,NULL*%
%TO.N,unconnected-(U1-NULL-Pad1)*%
X148035000Y-105645000D03*
%TO.P,U1,2,-*%
%TO.N,Net-(U1--)*%
X149305000Y-105645000D03*
%TO.P,U1,3,+*%
%TO.N,Net-(U1-+)*%
X150575000Y-105645000D03*
%TO.P,U1,4,V-*%
%TO.N,GND*%
X151845000Y-105645000D03*
%TO.P,U1,5,NULL*%
%TO.N,unconnected-(U1-NULL-Pad5)*%
X151845000Y-100695000D03*
%TO.P,U1,6*%
%TO.N,Net-(C1-Pad2)*%
X150575000Y-100695000D03*
%TO.P,U1,7,V+*%
%TO.N,Net-(U1-V+)*%
X149305000Y-100695000D03*
%TO.P,U1,8,NC*%
%TO.N,unconnected-(U1-NC-Pad8)*%
X148035000Y-100695000D03*
%TD*%
D23*
%TO.P,caplm7809,1*%
%TO.N,GND*%
X129287500Y-85500000D03*
%TO.P,caplm7809,2*%
%TO.N,Net-(U1-V+)*%
X127212500Y-85500000D03*
%TD*%
D15*
%TO.P,RP2,1*%
%TO.N,Net-(C1-Pad2)*%
X148700000Y-111850000D03*
%TO.P,RP2,2*%
%TO.N,Net-(U1--)*%
X148700000Y-108750000D03*
%TD*%
%TO.P,RP3,1*%
%TO.N,GND*%
X151150000Y-111850000D03*
%TO.P,RP3,2*%
%TO.N,Net-(U1-+)*%
X151150000Y-108750000D03*
%TD*%
D24*
%TO.P,C2,1*%
%TO.N,Net-(U1-+)*%
X154850000Y-109350000D03*
%TO.P,C2,2*%
%TO.N,GND*%
X154850000Y-112950000D03*
%TD*%
D15*
%TO.P,Rpolarizadordeelectret1,1*%
%TO.N,Net-(MK1-+)*%
X135800000Y-102950000D03*
%TO.P,Rpolarizadordeelectret1,2*%
%TO.N,Net-(U1-V+)*%
X135800000Y-99850000D03*
%TD*%
D25*
%TO.P,Calimentacion1,1*%
%TO.N,GND*%
X158000000Y-103537500D03*
%TO.P,Calimentacion1,2*%
%TO.N,Net-(U1-V+)*%
X158000000Y-101462500D03*
%TD*%
D26*
%TO.N,Net-(U1--)*%
X146400000Y-109012500D02*
X146500000Y-109112500D01*
X149305000Y-108145000D02*
X148700000Y-108750000D01*
X148700000Y-108750000D02*
X146862500Y-108750000D01*
X146862500Y-108750000D02*
X146500000Y-109112500D01*
X149305000Y-105645000D02*
X149305000Y-108145000D01*
X146400000Y-106750000D02*
X146400000Y-109012500D01*
%TO.N,Net-(C1-Pad2)*%
X144850000Y-105000000D02*
X145781000Y-104069000D01*
X145437500Y-111187500D02*
X144850000Y-110600000D01*
X146500000Y-111187500D02*
X145437500Y-111187500D01*
X144850000Y-110600000D02*
X144850000Y-105000000D01*
X146500000Y-111187500D02*
X148037500Y-111187500D01*
X148037500Y-111187500D02*
X148700000Y-111850000D01*
X150575000Y-101669999D02*
X150575000Y-100695000D01*
X152150000Y-115300000D02*
X159300000Y-115300000D01*
X148175999Y-104069000D02*
X150575000Y-101669999D01*
X148700000Y-111850000D02*
X152150000Y-115300000D01*
X145781000Y-104069000D02*
X148175999Y-104069000D01*
%TO.N,Net-(U1-+)*%
X154850000Y-109350000D02*
X151750000Y-109350000D01*
X151150000Y-108750000D02*
X150575000Y-108175000D01*
X150575000Y-104661636D02*
X151317636Y-103919000D01*
X151317636Y-103919000D02*
X154219000Y-103919000D01*
X154219000Y-103919000D02*
X154800000Y-104500000D01*
X151750000Y-109350000D02*
X151150000Y-108750000D01*
X150575000Y-108175000D02*
X150575000Y-105645000D01*
X150575000Y-105645000D02*
X150575000Y-104661636D01*
%TO.N,GND*%
X131662500Y-85500000D02*
X131750000Y-85412500D01*
X129287500Y-84112500D02*
X129287500Y-85500000D01*
X131975000Y-81525000D02*
X132250000Y-81250000D01*
X158000000Y-103537500D02*
X158162500Y-103537500D01*
X129250000Y-98900000D02*
X124500000Y-94150000D01*
X136628964Y-92600000D02*
X136690554Y-92661590D01*
X160445000Y-100150000D02*
X160445000Y-102469181D01*
X151845000Y-105645000D02*
X152101000Y-105901000D01*
X129477500Y-105960000D02*
X129500000Y-105982500D01*
X167993644Y-92712035D02*
X172700000Y-88005679D01*
X160445000Y-102469181D02*
X163550000Y-105574181D01*
X164700000Y-109150000D02*
X166045000Y-109150000D01*
X158625000Y-109175000D02*
X158625000Y-109100000D01*
X156224000Y-105901000D02*
X158000000Y-104125000D01*
X142300000Y-87052144D02*
X142300000Y-81250000D01*
X151150000Y-111850000D02*
X153750000Y-111850000D01*
X153750000Y-111850000D02*
X154850000Y-112950000D01*
X148252144Y-81100000D02*
X136690554Y-92661590D01*
X136690554Y-92661590D02*
X142300000Y-87052144D01*
X152101000Y-105901000D02*
X156224000Y-105901000D01*
X154850000Y-112950000D02*
X158625000Y-109175000D01*
X131950000Y-81500000D02*
X131975000Y-81525000D01*
X132200000Y-81200000D02*
X129287500Y-84112500D01*
X172700000Y-88005679D02*
X172700000Y-81100000D01*
X132250000Y-81250000D02*
X132200000Y-81200000D01*
X168545000Y-106650000D02*
X168545000Y-93263391D01*
X160445000Y-101092500D02*
X160445000Y-100150000D01*
X158000000Y-103537500D02*
X160445000Y-101092500D01*
X172700000Y-81100000D02*
X148252144Y-81100000D01*
X142300000Y-81250000D02*
X132250000Y-81250000D01*
X125150000Y-81500000D02*
X131950000Y-81500000D01*
X129477500Y-98900000D02*
X129250000Y-98900000D01*
X124500000Y-82150000D02*
X125150000Y-81500000D01*
X158625000Y-104162500D02*
X158000000Y-103537500D01*
X158625000Y-109100000D02*
X158625000Y-104162500D01*
X166045000Y-109150000D02*
X168545000Y-106650000D01*
X158000000Y-104125000D02*
X158000000Y-103537500D01*
X129477500Y-98900000D02*
X129477500Y-105960000D01*
X131750000Y-81750000D02*
X131975000Y-81525000D01*
X168545000Y-93263391D02*
X167993644Y-92712035D01*
X163550000Y-105574181D02*
X163550000Y-108000000D01*
X131794740Y-85457240D02*
X131750000Y-85412500D01*
X163550000Y-108000000D02*
X164700000Y-109150000D01*
X124500000Y-94150000D02*
X124500000Y-82150000D01*
X131750000Y-85412500D02*
X131750000Y-81750000D01*
%TO.N,Net-(MK1-+)*%
X135800000Y-102950000D02*
X137250000Y-104400000D01*
X137250000Y-104400000D02*
X137250000Y-104950000D01*
X134317500Y-107882500D02*
X137250000Y-104950000D01*
X129500000Y-107882500D02*
X134317500Y-107882500D01*
X139950000Y-104950000D02*
X137250000Y-104950000D01*
%TO.N,Net-(C3-Pad1)*%
X139950000Y-108550000D02*
X141500000Y-108550000D01*
X141500000Y-108550000D02*
X143300000Y-106750000D01*
%TO.N,Net-(C5-Pad1)*%
X159300000Y-112200000D02*
X162500000Y-112200000D01*
%TO.N,Net-(U1-V+)*%
X154862500Y-101462500D02*
X154800000Y-101400000D01*
X132529056Y-94451000D02*
X135800000Y-97721944D01*
X149305000Y-99705000D02*
X149305000Y-100695000D01*
X148000000Y-98400000D02*
X149305000Y-99705000D01*
X135800000Y-97721944D02*
X136478056Y-98400000D01*
X127212500Y-85500000D02*
X127212500Y-92585000D01*
X136478056Y-98400000D02*
X148000000Y-98400000D01*
X135800000Y-99850000D02*
X135800000Y-97721944D01*
X154800000Y-101400000D02*
X151800000Y-98400000D01*
X127197500Y-92600000D02*
X129048500Y-94451000D01*
X127212500Y-92585000D02*
X127197500Y-92600000D01*
X129048500Y-94451000D02*
X132529056Y-94451000D01*
X158000000Y-101462500D02*
X154862500Y-101462500D01*
X151800000Y-98400000D02*
X148000000Y-98400000D01*
%TO.N,Net-(U2-VI)*%
X131757500Y-87495000D02*
X131750000Y-87487500D01*
X134652571Y-87487500D02*
X131750000Y-87487500D01*
X136682831Y-85457240D02*
X134652571Y-87487500D01*
X131750000Y-92592500D02*
X131757500Y-92600000D01*
X131757500Y-92600000D02*
X131757500Y-87495000D01*
%TO.N,Net-(U3-1_VIN+)*%
X166939226Y-85460774D02*
X162900000Y-89500000D01*
X165545000Y-103795000D02*
X165545000Y-106650000D01*
X167987267Y-85460774D02*
X166939226Y-85460774D01*
X162900000Y-101150000D02*
X165545000Y-103795000D01*
X162900000Y-89500000D02*
X162900000Y-101150000D01*
%TO.N,Net-(J2-Pin_1)*%
X161545000Y-107645000D02*
X161545000Y-106650000D01*
X166100000Y-112200000D02*
X161545000Y-107645000D01*
X166100000Y-112200000D02*
X170350000Y-112200000D01*
%TD*%
M02*
