M48
; DRILL file {KiCad 9.0.5} date 2025-12-12T14:25:08-0300
; FORMAT={-:-/ absolute / metric / decimal}
; #@! TF.CreationDate,2025-12-12T14:25:08-03:00
; #@! TF.GenerationSoftware,Kicad,Pcbnew,9.0.5
; #@! TF.FileFunction,Plated,1,2,PTH
FMAT,2
METRIC
; #@! TA.AperFunction,Plated,PTH,ComponentDrill
T1C0.700
; #@! TA.AperFunction,Plated,PTH,ComponentDrill
T2C0.800
; #@! TA.AperFunction,Plated,PTH,ComponentDrill
T3C0.900
; #@! TA.AperFunction,Plated,PTH,ComponentDrill
T4C1.100
; #@! TA.AperFunction,Plated,PTH,ComponentDrill
T5C1.143
; #@! TA.AperFunction,Plated,PTH,ComponentDrill
T6C1.520
%
G90
G05
T1
X143.977Y-32.913
X143.977Y-37.993
T2
X143.977Y-41.803
X143.977Y-49.423
X145.247Y-54.503
X145.247Y-57.003
X146.517Y-41.803
X146.517Y-49.423
X149.057Y-41.803
X149.057Y-49.423
X151.467Y-76.598
X151.467Y-84.218
X151.597Y-41.803
X151.597Y-49.423
X151.597Y-57.043
X151.597Y-64.663
X157.947Y-41.803
X157.947Y-44.343
X157.947Y-46.883
X157.947Y-49.423
X157.947Y-58.313
X157.947Y-60.853
X157.947Y-63.393
X157.947Y-65.933
X157.947Y-68.473
X157.947Y-71.013
X157.947Y-73.553
X157.947Y-76.093
X165.567Y-41.803
X165.567Y-44.343
X165.567Y-46.883
X165.567Y-49.423
X165.567Y-58.313
X165.567Y-60.853
X165.567Y-63.393
X165.567Y-65.933
X165.567Y-68.473
X165.567Y-71.013
X165.567Y-73.553
X165.567Y-76.093
X170.647Y-51.963
X170.647Y-54.463
X176.997Y-54.503
X184.617Y-54.503
T3
X174.457Y-41.883
X174.457Y-46.883
X179.457Y-44.383
T4
X187.417Y-41.853
X187.417Y-44.393
X187.417Y-46.933
T5
X176.997Y-62.123
X176.997Y-67.203
X184.617Y-62.123
X184.617Y-64.663
X184.617Y-67.203
T6
X154.137Y-32.913
X159.217Y-32.913
X164.297Y-32.913
X169.377Y-32.913
M30
