%TF.GenerationSoftware,KiCad,Pcbnew,9.0.5*%
%TF.CreationDate,2025-12-05T20:00:20-03:00*%
%TF.ProjectId,SensorInfrarrojo,53656e73-6f72-4496-9e66-726172726f6a,rev?*%
%TF.SameCoordinates,Original*%
%TF.FileFunction,Copper,L1,Top*%
%TF.FilePolarity,Positive*%
%FSLAX46Y46*%
G04 Gerber Fmt 4.6, Leading zero omitted, Abs format (unit mm)*
G04 Created by KiCad (PCBNEW 9.0.5) date 2025-12-05 20:00:20*
%MOMM*%
%LPD*%
G01*
G04 APERTURE LIST*
G04 Aperture macros list*
%AMRoundRect*
0 Rectangle with rounded corners*
0 $1 Rounding radius*
0 $2 $3 $4 $5 $6 $7 $8 $9 X,Y pos of 4 corners*
0 Add a 4 corners polygon primitive as box body*
4,1,4,$2,$3,$4,$5,$6,$7,$8,$9,$2,$3,0*
0 Add four circle primitives for the rounded corners*
1,1,$1+$1,$2,$3*
1,1,$1+$1,$4,$5*
1,1,$1+$1,$6,$7*
1,1,$1+$1,$8,$9*
0 Add four rect primitives between the rounded corners*
20,1,$1+$1,$2,$3,$4,$5,0*
20,1,$1+$1,$4,$5,$6,$7,0*
20,1,$1+$1,$6,$7,$8,$9,0*
20,1,$1+$1,$8,$9,$2,$3,0*%
G04 Aperture macros list end*
%TA.AperFunction,ComponentPad*%
%ADD10RoundRect,0.250000X-1.050000X1.050000X-1.050000X-1.050000X1.050000X-1.050000X1.050000X1.050000X0*%
%TD*%
%TA.AperFunction,ComponentPad*%
%ADD11C,2.600000*%
%TD*%
%TA.AperFunction,SMDPad,CuDef*%
%ADD12RoundRect,0.237500X0.250000X0.237500X-0.250000X0.237500X-0.250000X-0.237500X0.250000X-0.237500X0*%
%TD*%
%TA.AperFunction,ComponentPad*%
%ADD13C,1.500000*%
%TD*%
%TA.AperFunction,SMDPad,CuDef*%
%ADD14RoundRect,0.160000X-0.160000X0.222500X-0.160000X-0.222500X0.160000X-0.222500X0.160000X0.222500X0*%
%TD*%
%TA.AperFunction,SMDPad,CuDef*%
%ADD15RoundRect,0.237500X-0.250000X-0.237500X0.250000X-0.237500X0.250000X0.237500X-0.250000X0.237500X0*%
%TD*%
%TA.AperFunction,SMDPad,CuDef*%
%ADD16RoundRect,0.075000X-0.225000X0.910000X-0.225000X-0.910000X0.225000X-0.910000X0.225000X0.910000X0*%
%TD*%
%TA.AperFunction,ComponentPad*%
%ADD17C,1.980000*%
%TD*%
%TA.AperFunction,ComponentPad*%
%ADD18C,1.935000*%
%TD*%
%TA.AperFunction,ComponentPad*%
%ADD19R,1.980000X1.980000*%
%TD*%
%TA.AperFunction,SMDPad,CuDef*%
%ADD20RoundRect,0.150000X0.200000X-0.150000X0.200000X0.150000X-0.200000X0.150000X-0.200000X-0.150000X0*%
%TD*%
%TA.AperFunction,ComponentPad*%
%ADD21C,1.298000*%
%TD*%
%TA.AperFunction,ComponentPad*%
%ADD22R,1.298000X1.298000*%
%TD*%
%TA.AperFunction,ComponentPad*%
%ADD23C,2.800000*%
%TD*%
%TA.AperFunction,ComponentPad*%
%ADD24RoundRect,0.250001X1.149999X1.149999X-1.149999X1.149999X-1.149999X-1.149999X1.149999X-1.149999X0*%
%TD*%
%TA.AperFunction,ComponentPad*%
%ADD25C,1.400000*%
%TD*%
%TA.AperFunction,SMDPad,CuDef*%
%ADD26RoundRect,0.150000X-0.200000X0.150000X-0.200000X-0.150000X0.200000X-0.150000X0.200000X0.150000X0*%
%TD*%
%TA.AperFunction,ComponentPad*%
%ADD27C,1.440000*%
%TD*%
%TA.AperFunction,Conductor*%
%ADD28C,0.200000*%
%TD*%
G04 APERTURE END LIST*
D10*
%TO.P,J1,1,Pin_1*%
%TO.N,Net-(J1-Pin_1)*%
X61000000Y-73500000D03*
D11*
%TO.P,J1,2,Pin_2*%
%TO.N,Net-(J1-Pin_2)*%
X61000000Y-78500000D03*
%TO.P,J1,3,Pin_3*%
%TO.N,Net-(J1-Pin_3)*%
X61000000Y-83500000D03*
%TD*%
D12*
%TO.P,R5,2*%
%TO.N,VCC*%
X124087500Y-72975000D03*
%TO.P,R5,1*%
%TO.N,Net-(IC3-IN_A_2)*%
X125912500Y-72975000D03*
%TD*%
D13*
%TO.P,U2,A*%
%TO.N,Net-(R4-Pad1)*%
X137770000Y-81225000D03*
%TO.P,U2,CATH*%
%TO.N,GND*%
X135230000Y-81225000D03*
%TO.P,U2,COLL*%
%TO.N,Net-(IC3-IN_A_2)*%
X137770000Y-75725000D03*
%TO.P,U2,E*%
%TO.N,GND*%
X135230000Y-75725000D03*
%TD*%
D14*
%TO.P,D2,2,A*%
%TO.N,Net-(D2-A)*%
X92000000Y-77645000D03*
%TO.P,D2,1,K*%
%TO.N,Net-(D2-K)*%
X92000000Y-76500000D03*
%TD*%
D15*
%TO.P,R1,1*%
%TO.N,VCC*%
X114087500Y-83200000D03*
%TO.P,R1,2*%
%TO.N,Net-(D1-A)*%
X115912500Y-83200000D03*
%TD*%
D16*
%TO.P,IC3,8,VCC*%
%TO.N,VCC*%
X130040000Y-80950000D03*
%TO.P,IC3,7,OUT_B*%
%TO.N,GND*%
X128770000Y-80950000D03*
%TO.P,IC3,6,IN_B_2*%
X127500000Y-80950000D03*
%TO.P,IC3,5,IN_B*%
X126230000Y-80950000D03*
%TO.P,IC3,4,GND*%
%TO.N,Net-(IC3-GND)*%
X126230000Y-76000000D03*
%TO.P,IC3,3,IN_A*%
%TO.N,Net-(IC3-IN_A)*%
X127500000Y-76000000D03*
%TO.P,IC3,2,IN_A_2*%
%TO.N,Net-(IC3-IN_A_2)*%
X128770000Y-76000000D03*
%TO.P,IC3,1,OUT_A*%
%TO.N,S*%
X130040000Y-76000000D03*
%TD*%
D17*
%TO.P,Rel1,NO*%
%TO.N,Net-(J1-Pin_1)*%
X70900000Y-72500000D03*
%TO.P,Rel1,NC*%
%TO.N,Net-(J1-Pin_3)*%
X70900000Y-84500000D03*
D18*
%TO.P,Rel1,COM*%
%TO.N,Net-(J1-Pin_2)*%
X85100000Y-78500000D03*
D17*
%TO.P,Rel1,A2*%
%TO.N,Net-(D2-K)*%
X83100000Y-72500000D03*
D19*
%TO.P,Rel1,A1*%
%TO.N,VCC*%
X83100000Y-84500000D03*
%TD*%
D15*
%TO.P,R3,2*%
%TO.N,S*%
X115912500Y-78700000D03*
%TO.P,R3,1*%
%TO.N,VCC*%
X114087500Y-78700000D03*
%TD*%
D20*
%TO.P,D1,2,A*%
%TO.N,Net-(D1-A)*%
X119500000Y-81400000D03*
%TO.P,D1,1,K*%
%TO.N,S*%
X119500000Y-80000000D03*
%TD*%
D21*
%TO.P,Q2,3*%
%TO.N,Net-(D2-K)*%
X90460000Y-72170000D03*
%TO.P,Q2,2*%
%TO.N,Net-(Q2-Pad2)*%
X93000000Y-72170000D03*
D22*
%TO.P,Q2,1*%
%TO.N,GND*%
X95540000Y-72170000D03*
%TD*%
D23*
%TO.P,J2,2,Pin_2*%
%TO.N,GND*%
X101000000Y-81000000D03*
D24*
%TO.P,J2,1,Pin_1*%
%TO.N,VCC*%
X106000000Y-81000000D03*
%TD*%
D25*
%TO.P,R7,2*%
%TO.N,Net-(Q2-Pad2)*%
X100920000Y-72500000D03*
%TO.P,R7,1*%
%TO.N,S*%
X106000000Y-72500000D03*
%TD*%
D26*
%TO.P,D3,2,A*%
%TO.N,Net-(D2-K)*%
X89000000Y-77800000D03*
%TO.P,D3,1,K*%
%TO.N,VCC*%
X89000000Y-79200000D03*
%TD*%
D25*
%TO.P,R6,1*%
%TO.N,Net-(D2-A)*%
X92000000Y-80000000D03*
%TO.P,R6,2*%
%TO.N,VCC*%
X92000000Y-85080000D03*
%TD*%
D27*
%TO.P,RV1,3,3*%
%TO.N,Net-(IC3-GND)*%
X118580000Y-74000000D03*
%TO.P,RV1,2,2*%
%TO.N,Net-(IC3-IN_A)*%
X116040000Y-74000000D03*
%TO.P,RV1,1,1*%
%TO.N,VCC*%
X113500000Y-74000000D03*
%TD*%
D12*
%TO.P,R4,1*%
%TO.N,Net-(R4-Pad1)*%
X129412500Y-83975000D03*
%TO.P,R4,2*%
%TO.N,VCC*%
X127587500Y-83975000D03*
%TD*%
D28*
%TO.N,Net-(IC3-IN_A_2)*%
X128770000Y-75601176D02*
X128770000Y-76000000D01*
X125912500Y-72975000D02*
X135020000Y-72975000D01*
X135020000Y-72975000D02*
X137770000Y-75725000D01*
X125912500Y-72975000D02*
X126143824Y-72975000D01*
%TO.N,VCC*%
X89000000Y-79200000D02*
X89000000Y-82080000D01*
X138821000Y-76160339D02*
X138205339Y-76776000D01*
X124087500Y-72975000D02*
X125563500Y-71499000D01*
%TO.N,Net-(IC3-IN_A_2)*%
X126143824Y-72975000D02*
X128770000Y-75601176D01*
%TO.N,VCC*%
X89000000Y-82080000D02*
X92000000Y-85080000D01*
X130040000Y-80770844D02*
X130040000Y-80950000D01*
%TO.N,GND*%
X133010001Y-75725000D02*
X135230000Y-75725000D01*
X128770000Y-80950000D02*
X128770000Y-79965001D01*
X128770000Y-79965001D02*
X133010001Y-75725000D01*
X126230000Y-80950000D02*
X127500000Y-80950000D01*
%TO.N,VCC*%
X125563500Y-71499000D02*
X135030339Y-71499000D01*
X138821000Y-75289661D02*
X138821000Y-76160339D01*
X89000000Y-82080000D02*
X87920000Y-82080000D01*
X87920000Y-82080000D02*
X85500000Y-84500000D01*
X135030339Y-71499000D02*
X138821000Y-75289661D01*
%TO.N,Net-(D1-A)*%
X115912500Y-83200000D02*
X117700000Y-83200000D01*
%TO.N,Net-(IC3-GND)*%
X126230000Y-76000000D02*
X120580000Y-76000000D01*
%TO.N,Net-(D1-A)*%
X117700000Y-83200000D02*
X119500000Y-81400000D01*
%TO.N,S*%
X113443913Y-72500000D02*
X106000000Y-72500000D01*
%TO.N,Net-(J1-Pin_1)*%
X62000000Y-72500000D02*
X61000000Y-73500000D01*
%TO.N,Net-(Q2-Pad2)*%
X100220000Y-73200000D02*
X94030000Y-73200000D01*
%TO.N,Net-(D2-A)*%
X92000000Y-80000000D02*
X92000000Y-77645000D01*
%TO.N,Net-(D2-K)*%
X89000000Y-73630000D02*
X90460000Y-72170000D01*
%TO.N,Net-(Q2-Pad2)*%
X94030000Y-73200000D02*
X93000000Y-72170000D01*
X100920000Y-72500000D02*
X100220000Y-73200000D01*
%TO.N,Net-(J1-Pin_1)*%
X70900000Y-72500000D02*
X62000000Y-72500000D01*
%TO.N,Net-(D2-K)*%
X92000000Y-76500000D02*
X90300000Y-76500000D01*
%TO.N,Net-(J1-Pin_3)*%
X70900000Y-84500000D02*
X69900000Y-83500000D01*
%TO.N,Net-(D2-K)*%
X90300000Y-76500000D02*
X89000000Y-77800000D01*
X89000000Y-77800000D02*
X89000000Y-73630000D01*
%TO.N,Net-(J1-Pin_2)*%
X85100000Y-78500000D02*
X61000000Y-78500000D01*
%TO.N,Net-(J1-Pin_3)*%
X69900000Y-83500000D02*
X61000000Y-83500000D01*
%TO.N,VCC*%
X106000000Y-81000000D02*
X101920000Y-85080000D01*
X101920000Y-85080000D02*
X92000000Y-85080000D01*
X85500000Y-84500000D02*
X83100000Y-84500000D01*
X134034844Y-76776000D02*
X130040000Y-80770844D01*
%TO.N,S*%
X114521000Y-73577087D02*
X113443913Y-72500000D01*
X114521000Y-75021000D02*
X114521000Y-73577087D01*
X115912500Y-78700000D02*
X118200000Y-78700000D01*
%TO.N,VCC*%
X111787500Y-81000000D02*
X113987500Y-83200000D01*
X113987500Y-83200000D02*
X114087500Y-83200000D01*
%TO.N,S*%
X118200000Y-78700000D02*
X119500000Y-80000000D01*
X118200000Y-78700000D02*
X127738824Y-78700000D01*
X127738824Y-78700000D02*
X130040000Y-76398824D01*
X130040000Y-76398824D02*
X130040000Y-76000000D01*
X118200000Y-78700000D02*
X114521000Y-75021000D01*
%TO.N,Net-(D2-K)*%
X83100000Y-72500000D02*
X90130000Y-72500000D01*
X90130000Y-72500000D02*
X90460000Y-72170000D01*
%TO.N,VCC*%
X113500000Y-77500000D02*
X113500000Y-74000000D01*
%TO.N,Net-(R4-Pad1)*%
X129412500Y-83975000D02*
X135020000Y-83975000D01*
X135020000Y-83975000D02*
X137770000Y-81225000D01*
%TO.N,VCC*%
X106000000Y-81000000D02*
X110000000Y-81000000D01*
X111787500Y-81000000D02*
X114087500Y-78700000D01*
X110000000Y-81000000D02*
X113500000Y-77500000D01*
X110000000Y-81000000D02*
X111787500Y-81000000D01*
X130040000Y-80950000D02*
X130040000Y-81522500D01*
X130040000Y-81522500D02*
X127587500Y-83975000D01*
%TO.N,Net-(IC3-IN_A)*%
X127198999Y-74714000D02*
X120737913Y-74714000D01*
X127500000Y-76000000D02*
X127500000Y-75015001D01*
X120737913Y-74714000D02*
X119002913Y-72979000D01*
X119002913Y-72979000D02*
X117061000Y-72979000D01*
X127500000Y-75015001D02*
X127198999Y-74714000D01*
%TO.N,VCC*%
X138205339Y-76776000D02*
X134034844Y-76776000D01*
%TO.N,Net-(IC3-GND)*%
X120580000Y-76000000D02*
X118580000Y-74000000D01*
%TO.N,Net-(IC3-IN_A)*%
X117061000Y-72979000D02*
X116040000Y-74000000D01*
%TO.N,GND*%
X127500000Y-80950000D02*
X128770000Y-80950000D01*
%TO.N,VCC*%
X110000000Y-85000000D02*
X126562500Y-85000000D01*
X126562500Y-85000000D02*
X127587500Y-83975000D01*
X106000000Y-81000000D02*
X110000000Y-85000000D01*
%TD*%
M02*
