M48
; DRILL file {KiCad 9.0.5} date 2025-12-05T20:02:41-0300
; FORMAT={-:-/ absolute / metric / decimal}
; #@! TF.CreationDate,2025-12-05T20:02:41-03:00
; #@! TF.GenerationSoftware,Kicad,Pcbnew,9.0.5
; #@! TF.FileFunction,Plated,1,2,PTH
FMAT,2
METRIC
; #@! TA.AperFunction,Plated,PTH,ComponentDrill
T1C0.700
; #@! TA.AperFunction,Plated,PTH,ComponentDrill
T2C0.790
; #@! TA.AperFunction,Plated,PTH,ComponentDrill
T3C0.800
; #@! TA.AperFunction,Plated,PTH,ComponentDrill
T4C1.000
; #@! TA.AperFunction,Plated,PTH,ComponentDrill
T5C1.290
; #@! TA.AperFunction,Plated,PTH,ComponentDrill
T6C1.300
; #@! TA.AperFunction,Plated,PTH,ComponentDrill
T7C1.320
%
G90
G05
T1
X92.0Y-80.0
X92.0Y-85.08
X100.92Y-72.5
X106.0Y-72.5
T2
X90.46Y-72.17
X93.0Y-72.17
X95.54Y-72.17
T3
X113.5Y-74.0
X116.04Y-74.0
X118.58Y-74.0
T4
X135.23Y-75.725
X135.23Y-81.225
X137.77Y-75.725
X137.77Y-81.225
T5
X85.1Y-78.5
T6
X61.0Y-73.5
X61.0Y-78.5
X61.0Y-83.5
X101.0Y-81.0
X106.0Y-81.0
T7
X70.9Y-72.5
X70.9Y-84.5
X83.1Y-72.5
X83.1Y-84.5
M30
