%TF.GenerationSoftware,KiCad,Pcbnew,9.0.5*%
%TF.CreationDate,2025-12-05T20:00:20-03:00*%
%TF.ProjectId,SensorInfrarrojo,53656e73-6f72-4496-9e66-726172726f6a,rev?*%
%TF.SameCoordinates,Original*%
%TF.FileFunction,Legend,Top*%
%TF.FilePolarity,Positive*%
%FSLAX46Y46*%
G04 Gerber Fmt 4.6, Leading zero omitted, Abs format (unit mm)*
G04 Created by KiCad (PCBNEW 9.0.5) date 2025-12-05 20:00:20*
%MOMM*%
%LPD*%
G01*
G04 APERTURE LIST*
%ADD10C,0.150000*%
%ADD11C,0.120000*%
%ADD12C,0.127000*%
%ADD13C,0.100000*%
%ADD14C,0.200000*%
%ADD15C,0.300000*%
G04 APERTURE END LIST*
D10*
X124833333Y-74859819D02*
X124500000Y-74383628D01*
X124261905Y-74859819D02*
X124261905Y-73859819D01*
X124261905Y-73859819D02*
X124642857Y-73859819D01*
X124642857Y-73859819D02*
X124738095Y-73907438D01*
X124738095Y-73907438D02*
X124785714Y-73955057D01*
X124785714Y-73955057D02*
X124833333Y-74050295D01*
X124833333Y-74050295D02*
X124833333Y-74193152D01*
X124833333Y-74193152D02*
X124785714Y-74288390D01*
X124785714Y-74288390D02*
X124738095Y-74336009D01*
X124738095Y-74336009D02*
X124642857Y-74383628D01*
X124642857Y-74383628D02*
X124261905Y-74383628D01*
X125738095Y-73859819D02*
X125261905Y-73859819D01*
X125261905Y-73859819D02*
X125214286Y-74336009D01*
X125214286Y-74336009D02*
X125261905Y-74288390D01*
X125261905Y-74288390D02*
X125357143Y-74240771D01*
X125357143Y-74240771D02*
X125595238Y-74240771D01*
X125595238Y-74240771D02*
X125690476Y-74288390D01*
X125690476Y-74288390D02*
X125738095Y-74336009D01*
X125738095Y-74336009D02*
X125785714Y-74431247D01*
X125785714Y-74431247D02*
X125785714Y-74669342D01*
X125785714Y-74669342D02*
X125738095Y-74764580D01*
X125738095Y-74764580D02*
X125690476Y-74812200D01*
X125690476Y-74812200D02*
X125595238Y-74859819D01*
X125595238Y-74859819D02*
X125357143Y-74859819D01*
X125357143Y-74859819D02*
X125261905Y-74812200D01*
X125261905Y-74812200D02*
X125214286Y-74764580D01*
X131412602Y-79740048D02*
X132225466Y-79740048D01*
X132225466Y-79740048D02*
X132321097Y-79692232D01*
X132321097Y-79692232D02*
X132368913Y-79644417D01*
X132368913Y-79644417D02*
X132416728Y-79548786D01*
X132416728Y-79548786D02*
X132416728Y-79357524D01*
X132416728Y-79357524D02*
X132368913Y-79261893D01*
X132368913Y-79261893D02*
X132321097Y-79214077D01*
X132321097Y-79214077D02*
X132225466Y-79166262D01*
X132225466Y-79166262D02*
X131412602Y-79166262D01*
X131508233Y-78735921D02*
X131460418Y-78688106D01*
X131460418Y-78688106D02*
X131412602Y-78592475D01*
X131412602Y-78592475D02*
X131412602Y-78353397D01*
X131412602Y-78353397D02*
X131460418Y-78257766D01*
X131460418Y-78257766D02*
X131508233Y-78209951D01*
X131508233Y-78209951D02*
X131603864Y-78162135D01*
X131603864Y-78162135D02*
X131699495Y-78162135D01*
X131699495Y-78162135D02*
X131842942Y-78209951D01*
X131842942Y-78209951D02*
X132416728Y-78783737D01*
X132416728Y-78783737D02*
X132416728Y-78162135D01*
X93954819Y-77738094D02*
X92954819Y-77738094D01*
X92954819Y-77738094D02*
X92954819Y-77499999D01*
X92954819Y-77499999D02*
X93002438Y-77357142D01*
X93002438Y-77357142D02*
X93097676Y-77261904D01*
X93097676Y-77261904D02*
X93192914Y-77214285D01*
X93192914Y-77214285D02*
X93383390Y-77166666D01*
X93383390Y-77166666D02*
X93526247Y-77166666D01*
X93526247Y-77166666D02*
X93716723Y-77214285D01*
X93716723Y-77214285D02*
X93811961Y-77261904D01*
X93811961Y-77261904D02*
X93907200Y-77357142D01*
X93907200Y-77357142D02*
X93954819Y-77499999D01*
X93954819Y-77499999D02*
X93954819Y-77738094D01*
X93050057Y-76785713D02*
X93002438Y-76738094D01*
X93002438Y-76738094D02*
X92954819Y-76642856D01*
X92954819Y-76642856D02*
X92954819Y-76404761D01*
X92954819Y-76404761D02*
X93002438Y-76309523D01*
X93002438Y-76309523D02*
X93050057Y-76261904D01*
X93050057Y-76261904D02*
X93145295Y-76214285D01*
X93145295Y-76214285D02*
X93240533Y-76214285D01*
X93240533Y-76214285D02*
X93383390Y-76261904D01*
X93383390Y-76261904D02*
X93954819Y-76833332D01*
X93954819Y-76833332D02*
X93954819Y-76214285D01*
X114833333Y-82224819D02*
X114500000Y-81748628D01*
X114261905Y-82224819D02*
X114261905Y-81224819D01*
X114261905Y-81224819D02*
X114642857Y-81224819D01*
X114642857Y-81224819D02*
X114738095Y-81272438D01*
X114738095Y-81272438D02*
X114785714Y-81320057D01*
X114785714Y-81320057D02*
X114833333Y-81415295D01*
X114833333Y-81415295D02*
X114833333Y-81558152D01*
X114833333Y-81558152D02*
X114785714Y-81653390D01*
X114785714Y-81653390D02*
X114738095Y-81701009D01*
X114738095Y-81701009D02*
X114642857Y-81748628D01*
X114642857Y-81748628D02*
X114261905Y-81748628D01*
X115785714Y-82224819D02*
X115214286Y-82224819D01*
X115500000Y-82224819D02*
X115500000Y-81224819D01*
X115500000Y-81224819D02*
X115404762Y-81367676D01*
X115404762Y-81367676D02*
X115309524Y-81462914D01*
X115309524Y-81462914D02*
X115214286Y-81510533D01*
X124994819Y-79451189D02*
X123994819Y-79451189D01*
X124899580Y-78403571D02*
X124947200Y-78451190D01*
X124947200Y-78451190D02*
X124994819Y-78594047D01*
X124994819Y-78594047D02*
X124994819Y-78689285D01*
X124994819Y-78689285D02*
X124947200Y-78832142D01*
X124947200Y-78832142D02*
X124851961Y-78927380D01*
X124851961Y-78927380D02*
X124756723Y-78974999D01*
X124756723Y-78974999D02*
X124566247Y-79022618D01*
X124566247Y-79022618D02*
X124423390Y-79022618D01*
X124423390Y-79022618D02*
X124232914Y-78974999D01*
X124232914Y-78974999D02*
X124137676Y-78927380D01*
X124137676Y-78927380D02*
X124042438Y-78832142D01*
X124042438Y-78832142D02*
X123994819Y-78689285D01*
X123994819Y-78689285D02*
X123994819Y-78594047D01*
X123994819Y-78594047D02*
X124042438Y-78451190D01*
X124042438Y-78451190D02*
X124090057Y-78403571D01*
X123994819Y-78070237D02*
X123994819Y-77451190D01*
X123994819Y-77451190D02*
X124375771Y-77784523D01*
X124375771Y-77784523D02*
X124375771Y-77641666D01*
X124375771Y-77641666D02*
X124423390Y-77546428D01*
X124423390Y-77546428D02*
X124471009Y-77498809D01*
X124471009Y-77498809D02*
X124566247Y-77451190D01*
X124566247Y-77451190D02*
X124804342Y-77451190D01*
X124804342Y-77451190D02*
X124899580Y-77498809D01*
X124899580Y-77498809D02*
X124947200Y-77546428D01*
X124947200Y-77546428D02*
X124994819Y-77641666D01*
X124994819Y-77641666D02*
X124994819Y-77927380D01*
X124994819Y-77927380D02*
X124947200Y-78022618D01*
X124947200Y-78022618D02*
X124899580Y-78070237D01*
X82768406Y-87790703D02*
X82435042Y-87314468D01*
X82196924Y-87790703D02*
X82196924Y-86790609D01*
X82196924Y-86790609D02*
X82577912Y-86790609D01*
X82577912Y-86790609D02*
X82673159Y-86838233D01*
X82673159Y-86838233D02*
X82720783Y-86885856D01*
X82720783Y-86885856D02*
X82768406Y-86981103D01*
X82768406Y-86981103D02*
X82768406Y-87123974D01*
X82768406Y-87123974D02*
X82720783Y-87219221D01*
X82720783Y-87219221D02*
X82673159Y-87266844D01*
X82673159Y-87266844D02*
X82577912Y-87314468D01*
X82577912Y-87314468D02*
X82196924Y-87314468D01*
X83578006Y-87743080D02*
X83482759Y-87790703D01*
X83482759Y-87790703D02*
X83292265Y-87790703D01*
X83292265Y-87790703D02*
X83197018Y-87743080D01*
X83197018Y-87743080D02*
X83149395Y-87647832D01*
X83149395Y-87647832D02*
X83149395Y-87266844D01*
X83149395Y-87266844D02*
X83197018Y-87171597D01*
X83197018Y-87171597D02*
X83292265Y-87123974D01*
X83292265Y-87123974D02*
X83482759Y-87123974D01*
X83482759Y-87123974D02*
X83578006Y-87171597D01*
X83578006Y-87171597D02*
X83625630Y-87266844D01*
X83625630Y-87266844D02*
X83625630Y-87362091D01*
X83625630Y-87362091D02*
X83149395Y-87457338D01*
X84197112Y-87790703D02*
X84101865Y-87743080D01*
X84101865Y-87743080D02*
X84054241Y-87647832D01*
X84054241Y-87647832D02*
X84054241Y-86790609D01*
X85101959Y-87790703D02*
X84530477Y-87790703D01*
X84816218Y-87790703D02*
X84816218Y-86790609D01*
X84816218Y-86790609D02*
X84720971Y-86933480D01*
X84720971Y-86933480D02*
X84625724Y-87028727D01*
X84625724Y-87028727D02*
X84530477Y-87076350D01*
X114833333Y-77724819D02*
X114500000Y-77248628D01*
X114261905Y-77724819D02*
X114261905Y-76724819D01*
X114261905Y-76724819D02*
X114642857Y-76724819D01*
X114642857Y-76724819D02*
X114738095Y-76772438D01*
X114738095Y-76772438D02*
X114785714Y-76820057D01*
X114785714Y-76820057D02*
X114833333Y-76915295D01*
X114833333Y-76915295D02*
X114833333Y-77058152D01*
X114833333Y-77058152D02*
X114785714Y-77153390D01*
X114785714Y-77153390D02*
X114738095Y-77201009D01*
X114738095Y-77201009D02*
X114642857Y-77248628D01*
X114642857Y-77248628D02*
X114261905Y-77248628D01*
X115166667Y-76724819D02*
X115785714Y-76724819D01*
X115785714Y-76724819D02*
X115452381Y-77105771D01*
X115452381Y-77105771D02*
X115595238Y-77105771D01*
X115595238Y-77105771D02*
X115690476Y-77153390D01*
X115690476Y-77153390D02*
X115738095Y-77201009D01*
X115738095Y-77201009D02*
X115785714Y-77296247D01*
X115785714Y-77296247D02*
X115785714Y-77534342D01*
X115785714Y-77534342D02*
X115738095Y-77629580D01*
X115738095Y-77629580D02*
X115690476Y-77677200D01*
X115690476Y-77677200D02*
X115595238Y-77724819D01*
X115595238Y-77724819D02*
X115309524Y-77724819D01*
X115309524Y-77724819D02*
X115214286Y-77677200D01*
X115214286Y-77677200D02*
X115166667Y-77629580D01*
X89050057Y-73095238D02*
X89002438Y-73190476D01*
X89002438Y-73190476D02*
X88907200Y-73285714D01*
X88907200Y-73285714D02*
X88764342Y-73428571D01*
X88764342Y-73428571D02*
X88716723Y-73523809D01*
X88716723Y-73523809D02*
X88716723Y-73619047D01*
X88954819Y-73571428D02*
X88907200Y-73666666D01*
X88907200Y-73666666D02*
X88811961Y-73761904D01*
X88811961Y-73761904D02*
X88621485Y-73809523D01*
X88621485Y-73809523D02*
X88288152Y-73809523D01*
X88288152Y-73809523D02*
X88097676Y-73761904D01*
X88097676Y-73761904D02*
X88002438Y-73666666D01*
X88002438Y-73666666D02*
X87954819Y-73571428D01*
X87954819Y-73571428D02*
X87954819Y-73380952D01*
X87954819Y-73380952D02*
X88002438Y-73285714D01*
X88002438Y-73285714D02*
X88097676Y-73190476D01*
X88097676Y-73190476D02*
X88288152Y-73142857D01*
X88288152Y-73142857D02*
X88621485Y-73142857D01*
X88621485Y-73142857D02*
X88811961Y-73190476D01*
X88811961Y-73190476D02*
X88907200Y-73285714D01*
X88907200Y-73285714D02*
X88954819Y-73380952D01*
X88954819Y-73380952D02*
X88954819Y-73571428D01*
X88050057Y-72761904D02*
X88002438Y-72714285D01*
X88002438Y-72714285D02*
X87954819Y-72619047D01*
X87954819Y-72619047D02*
X87954819Y-72380952D01*
X87954819Y-72380952D02*
X88002438Y-72285714D01*
X88002438Y-72285714D02*
X88050057Y-72238095D01*
X88050057Y-72238095D02*
X88145295Y-72190476D01*
X88145295Y-72190476D02*
X88240533Y-72190476D01*
X88240533Y-72190476D02*
X88383390Y-72238095D01*
X88383390Y-72238095D02*
X88954819Y-72809523D01*
X88954819Y-72809523D02*
X88954819Y-72190476D01*
X104833333Y-70454819D02*
X104500000Y-69978628D01*
X104261905Y-70454819D02*
X104261905Y-69454819D01*
X104261905Y-69454819D02*
X104642857Y-69454819D01*
X104642857Y-69454819D02*
X104738095Y-69502438D01*
X104738095Y-69502438D02*
X104785714Y-69550057D01*
X104785714Y-69550057D02*
X104833333Y-69645295D01*
X104833333Y-69645295D02*
X104833333Y-69788152D01*
X104833333Y-69788152D02*
X104785714Y-69883390D01*
X104785714Y-69883390D02*
X104738095Y-69931009D01*
X104738095Y-69931009D02*
X104642857Y-69978628D01*
X104642857Y-69978628D02*
X104261905Y-69978628D01*
X105166667Y-69454819D02*
X105833333Y-69454819D01*
X105833333Y-69454819D02*
X105404762Y-70454819D01*
X88154819Y-79238094D02*
X87154819Y-79238094D01*
X87154819Y-79238094D02*
X87154819Y-78999999D01*
X87154819Y-78999999D02*
X87202438Y-78857142D01*
X87202438Y-78857142D02*
X87297676Y-78761904D01*
X87297676Y-78761904D02*
X87392914Y-78714285D01*
X87392914Y-78714285D02*
X87583390Y-78666666D01*
X87583390Y-78666666D02*
X87726247Y-78666666D01*
X87726247Y-78666666D02*
X87916723Y-78714285D01*
X87916723Y-78714285D02*
X88011961Y-78761904D01*
X88011961Y-78761904D02*
X88107200Y-78857142D01*
X88107200Y-78857142D02*
X88154819Y-78999999D01*
X88154819Y-78999999D02*
X88154819Y-79238094D01*
X87154819Y-78333332D02*
X87154819Y-77714285D01*
X87154819Y-77714285D02*
X87535771Y-78047618D01*
X87535771Y-78047618D02*
X87535771Y-77904761D01*
X87535771Y-77904761D02*
X87583390Y-77809523D01*
X87583390Y-77809523D02*
X87631009Y-77761904D01*
X87631009Y-77761904D02*
X87726247Y-77714285D01*
X87726247Y-77714285D02*
X87964342Y-77714285D01*
X87964342Y-77714285D02*
X88059580Y-77761904D01*
X88059580Y-77761904D02*
X88107200Y-77809523D01*
X88107200Y-77809523D02*
X88154819Y-77904761D01*
X88154819Y-77904761D02*
X88154819Y-78190475D01*
X88154819Y-78190475D02*
X88107200Y-78285713D01*
X88107200Y-78285713D02*
X88059580Y-78333332D01*
X128333333Y-85859819D02*
X128000000Y-85383628D01*
X127761905Y-85859819D02*
X127761905Y-84859819D01*
X127761905Y-84859819D02*
X128142857Y-84859819D01*
X128142857Y-84859819D02*
X128238095Y-84907438D01*
X128238095Y-84907438D02*
X128285714Y-84955057D01*
X128285714Y-84955057D02*
X128333333Y-85050295D01*
X128333333Y-85050295D02*
X128333333Y-85193152D01*
X128333333Y-85193152D02*
X128285714Y-85288390D01*
X128285714Y-85288390D02*
X128238095Y-85336009D01*
X128238095Y-85336009D02*
X128142857Y-85383628D01*
X128142857Y-85383628D02*
X127761905Y-85383628D01*
X129190476Y-85193152D02*
X129190476Y-85859819D01*
X128952381Y-84812200D02*
X128714286Y-85526485D01*
X128714286Y-85526485D02*
X129333333Y-85526485D01*
D11*
%TO.C,J1*%
X56280000Y-70880000D02*
X66320000Y-70880000D01*
X56280000Y-73200000D02*
X56280000Y-70880000D01*
X56280000Y-86120000D02*
X56280000Y-73800000D01*
X56900000Y-70880000D02*
X56900000Y-86120000D01*
X58400000Y-70880000D02*
X58400000Y-86120000D01*
X63300000Y-70880000D02*
X63300000Y-86120000D01*
X66320000Y-70880000D02*
X66320000Y-86120000D01*
X66320000Y-86120000D02*
X56280000Y-86120000D01*
X56280000Y-73500000D02*
X55670000Y-73940000D01*
X55670000Y-73060000D01*
X56280000Y-73500000D01*
G36*
X56280000Y-73500000D02*
G01*
X55670000Y-73940000D01*
X55670000Y-73060000D01*
X56280000Y-73500000D01*
G37*
%TO.C,R5*%
X125254724Y-73497500D02*
X124745276Y-73497500D01*
X125254724Y-72452500D02*
X124745276Y-72452500D01*
D12*
%TO.C,U2*%
X133550000Y-74475000D02*
X133550000Y-77305000D01*
X133550000Y-79645000D02*
X133550000Y-82075000D01*
X133550000Y-82075000D02*
X135100000Y-83625000D01*
X134700000Y-73325000D02*
X139450000Y-73325000D01*
X135100000Y-83625000D02*
X137900000Y-83625000D01*
X139450000Y-73325000D02*
X139450000Y-77305000D01*
X139450000Y-82075000D02*
X137900000Y-83625000D01*
X139450000Y-82075000D02*
X139450000Y-79645000D01*
D13*
%TO.C,D2*%
X92050000Y-75807500D02*
G75*
G02*
X91950000Y-75807500I-50000J0D01*
G01*
X91950000Y-75807500D02*
G75*
G02*
X92050000Y-75807500I50000J0D01*
G01*
D11*
%TO.C,R1*%
X114745276Y-82677500D02*
X115254724Y-82677500D01*
X114745276Y-83722500D02*
X115254724Y-83722500D01*
D14*
%TO.C,IC3*%
X130740000Y-74030000D02*
G75*
G02*
X130540000Y-74030000I-100000J0D01*
G01*
X130540000Y-74030000D02*
G75*
G02*
X130740000Y-74030000I100000J0D01*
G01*
D12*
X130660000Y-76475000D02*
X130660000Y-80475000D01*
X125610000Y-76475000D02*
X125610000Y-80475000D01*
D15*
%TO.C,Rel1*%
X87300000Y-84619000D02*
G75*
G02*
X87100000Y-84619000I-100000J0D01*
G01*
X87100000Y-84619000D02*
G75*
G02*
X87300000Y-84619000I100000J0D01*
G01*
D12*
X86550000Y-86250000D02*
X67450000Y-86250000D01*
X86550000Y-70750000D02*
X86550000Y-86250000D01*
X67450000Y-86250000D02*
X67450000Y-70750000D01*
X67450000Y-70750000D02*
X86550000Y-70750000D01*
D11*
%TO.C,R3*%
X114745276Y-79222500D02*
X115254724Y-79222500D01*
X114745276Y-78177500D02*
X115254724Y-78177500D01*
%TO.C,D1*%
X120100000Y-81400000D02*
X120100000Y-79440000D01*
X120100000Y-79440000D02*
X118900000Y-79440000D01*
X118900000Y-81400000D02*
X118900000Y-79440000D01*
D14*
%TO.C,Q2*%
X97289000Y-72170000D02*
G75*
G02*
X97089000Y-72170000I-100000J0D01*
G01*
X97089000Y-72170000D02*
G75*
G02*
X97289000Y-72170000I100000J0D01*
G01*
D12*
X95200000Y-73100000D02*
G75*
G02*
X93000000Y-74500000I-2312437J1205258D01*
G01*
X93000000Y-74500000D02*
G75*
G02*
X90800000Y-73100000I112437J2605258D01*
G01*
X95300000Y-70900000D02*
X90700000Y-70900000D01*
D11*
%TO.C,J2*%
X106000000Y-77080000D02*
X105560000Y-76470000D01*
X106440000Y-76470000D01*
X106000000Y-77080000D01*
G36*
X106000000Y-77080000D02*
G01*
X105560000Y-76470000D01*
X106440000Y-76470000D01*
X106000000Y-77080000D01*
G37*
X109120000Y-85120000D02*
X98380000Y-85120000D01*
X109120000Y-81500000D02*
X107880000Y-81500000D01*
X109120000Y-80500000D02*
X107880000Y-80500000D01*
X109120000Y-79200000D02*
X107880000Y-79200000D01*
X109120000Y-77080000D02*
X109120000Y-85120000D01*
X106300000Y-77080000D02*
X109120000Y-77080000D01*
X104120000Y-81500000D02*
X102812000Y-81500000D01*
X104120000Y-80500000D02*
X102812000Y-80500000D01*
X104120000Y-79200000D02*
X101543000Y-79200000D01*
X100457000Y-79200000D02*
X98380000Y-79200000D01*
X99188000Y-81500000D02*
X98380000Y-81500000D01*
X99188000Y-80500000D02*
X98380000Y-80500000D01*
X98380000Y-85120000D02*
X98380000Y-77080000D01*
X98380000Y-77080000D02*
X105700000Y-77080000D01*
%TO.C,R7*%
X105380000Y-71580000D02*
X101540000Y-71580000D01*
X105380000Y-73420000D02*
X101540000Y-73420000D01*
%TO.C,D3*%
X89600000Y-77800000D02*
X89600000Y-79760000D01*
X88400000Y-79760000D02*
X89600000Y-79760000D01*
X88400000Y-77800000D02*
X88400000Y-79760000D01*
%TO.C,R6*%
X91080000Y-80620000D02*
X91080000Y-84460000D01*
X92920000Y-80620000D02*
X92920000Y-84460000D01*
%TO.C,RV1*%
X111165000Y-71470000D02*
X120915000Y-71470000D01*
X111165000Y-76520000D02*
X111165000Y-71470000D01*
X120915000Y-71470000D02*
X120915000Y-76520000D01*
X120915000Y-76520000D02*
X111165000Y-76520000D01*
%TO.C,R4*%
X128754724Y-84497500D02*
X128245276Y-84497500D01*
X128754724Y-83452500D02*
X128245276Y-83452500D01*
%TD*%
M02*
