M48
; DRILL file {KiCad 9.0.6} date 2025-12-04T15:44:07-0300
; FORMAT={-:-/ absolute / metric / decimal}
; #@! TF.CreationDate,2025-12-04T15:44:07-03:00
; #@! TF.GenerationSoftware,Kicad,Pcbnew,9.0.6
; #@! TF.FileFunction,Plated,1,2,PTH
FMAT,2
METRIC
; #@! TA.AperFunction,Plated,PTH,ComponentDrill
T1C0.800
; #@! TA.AperFunction,Plated,PTH,ComponentDrill
T2C0.900
; #@! TA.AperFunction,Plated,PTH,ComponentDrill
T3C1.829
%
G90
G05
T1
X110.69Y-99.5
X111.44Y-89.75
X113.44Y-76.0
X117.69Y-108.5
X118.31Y-99.5
X119.06Y-89.75
X121.06Y-76.0
X125.31Y-108.5
X128.44Y-75.5
X136.06Y-75.5
X150.69Y-113.25
X158.31Y-113.25
X163.69Y-113.0
X168.88Y-72.5
X170.695Y-93.69
X170.695Y-96.23
X170.695Y-98.77
X170.695Y-101.31
X171.31Y-113.0
X173.88Y-120.25
X176.5Y-72.5
X178.19Y-84.25
X178.315Y-93.69
X178.315Y-96.23
X178.315Y-98.77
X178.315Y-101.31
X181.5Y-120.25
X185.81Y-84.25
X191.8Y-108.0
X195.2Y-108.0
T2
X149.21Y-130.75
X151.75Y-130.75
X163.225Y-128.5
X165.765Y-128.5
X182.225Y-128.5
X184.765Y-128.5
T3
X196.38Y-84.75
X204.0Y-82.21
X204.0Y-87.29
M30
