%TF.GenerationSoftware,KiCad,Pcbnew,9.0.6*%
%TF.CreationDate,2025-12-04T15:43:59-03:00*%
%TF.ProjectId,sensor,73656e73-6f72-42e6-9b69-6361645f7063,rev?*%
%TF.SameCoordinates,Original*%
%TF.FileFunction,Soldermask,Top*%
%TF.FilePolarity,Negative*%
%FSLAX46Y46*%
G04 Gerber Fmt 4.6, Leading zero omitted, Abs format (unit mm)*
G04 Created by KiCad (PCBNEW 9.0.6) date 2025-12-04 15:43:59*
%MOMM*%
%LPD*%
G01*
G04 APERTURE LIST*
G04 Aperture macros list*
%AMRoundRect*
0 Rectangle with rounded corners*
0 $1 Rounding radius*
0 $2 $3 $4 $5 $6 $7 $8 $9 X,Y pos of 4 corners*
0 Add a 4 corners polygon primitive as box body*
4,1,4,$2,$3,$4,$5,$6,$7,$8,$9,$2,$3,0*
0 Add four circle primitives for the rounded corners*
1,1,$1+$1,$2,$3*
1,1,$1+$1,$4,$5*
1,1,$1+$1,$6,$7*
1,1,$1+$1,$8,$9*
0 Add four rect primitives between the rounded corners*
20,1,$1+$1,$2,$3,$4,$5,0*
20,1,$1+$1,$4,$5,$6,$7,0*
20,1,$1+$1,$6,$7,$8,$9,0*
20,1,$1+$1,$8,$9,$2,$3,0*%
G04 Aperture macros list end*
%ADD10C,1.600000*%
%ADD11R,1.800000X1.800000*%
%ADD12C,1.800000*%
%ADD13C,1.500000*%
%ADD14C,3.200000*%
%ADD15C,2.590800*%
%ADD16RoundRect,0.250000X-0.550000X-0.550000X0.550000X-0.550000X0.550000X0.550000X-0.550000X0.550000X0*%
G04 APERTURE END LIST*
D10*
%TO.C,R4*%
X128440000Y-75500000D03*
X136060000Y-75500000D03*
%TD*%
D11*
%TO.C,D2*%
X163225000Y-128500000D03*
D12*
X165765000Y-128500000D03*
%TD*%
D13*
%TO.C,R2*%
X191800000Y-108000000D03*
X195200000Y-108000000D03*
%TD*%
D14*
%TO.C,REF\u002A\u002A*%
X99500000Y-135000000D03*
%TD*%
%TO.C,REF\u002A\u002A*%
X99750000Y-61250000D03*
%TD*%
D10*
%TO.C,R5*%
X111440000Y-89750000D03*
X119060000Y-89750000D03*
%TD*%
%TO.C,R1*%
X168880000Y-72500000D03*
X176500000Y-72500000D03*
%TD*%
D15*
%TO.C,BT1*%
X196380000Y-84750000D03*
X204000000Y-82210000D03*
X204000000Y-87290000D03*
%TD*%
D10*
%TO.C,R8*%
X163690000Y-113000000D03*
X171310000Y-113000000D03*
%TD*%
D14*
%TO.C,REF\u002A\u002A*%
X213750000Y-61750000D03*
%TD*%
D10*
%TO.C,R11*%
X117690000Y-108500000D03*
X125310000Y-108500000D03*
%TD*%
%TO.C,R10*%
X178190000Y-84250000D03*
X185810000Y-84250000D03*
%TD*%
%TO.C,R3*%
X113440000Y-76000000D03*
X121060000Y-76000000D03*
%TD*%
D14*
%TO.C,REF\u002A\u002A*%
X215500000Y-137500000D03*
%TD*%
D11*
%TO.C,D3*%
X182225000Y-128500000D03*
D12*
X184765000Y-128500000D03*
%TD*%
D11*
%TO.C,D1*%
X149210000Y-130750000D03*
D12*
X151750000Y-130750000D03*
%TD*%
D16*
%TO.C,U1*%
X170695000Y-93690000D03*
D10*
X170695000Y-96230000D03*
X170695000Y-98770000D03*
X170695000Y-101310000D03*
X178315000Y-101310000D03*
X178315000Y-98770000D03*
X178315000Y-96230000D03*
X178315000Y-93690000D03*
%TD*%
%TO.C,R9*%
X173880000Y-120250000D03*
X181500000Y-120250000D03*
%TD*%
%TO.C,R6*%
X110690000Y-99500000D03*
X118310000Y-99500000D03*
%TD*%
%TO.C,R7*%
X150690000Y-113250000D03*
X158310000Y-113250000D03*
%TD*%
M02*
