%TF.GenerationSoftware,KiCad,Pcbnew,9.0.6*%
%TF.CreationDate,2025-12-04T15:43:59-03:00*%
%TF.ProjectId,sensor,73656e73-6f72-42e6-9b69-6361645f7063,rev?*%
%TF.SameCoordinates,Original*%
%TF.FileFunction,Copper,L1,Top*%
%TF.FilePolarity,Positive*%
%FSLAX46Y46*%
G04 Gerber Fmt 4.6, Leading zero omitted, Abs format (unit mm)*
G04 Created by KiCad (PCBNEW 9.0.6) date 2025-12-04 15:43:59*
%MOMM*%
%LPD*%
G01*
G04 APERTURE LIST*
G04 Aperture macros list*
%AMRoundRect*
0 Rectangle with rounded corners*
0 $1 Rounding radius*
0 $2 $3 $4 $5 $6 $7 $8 $9 X,Y pos of 4 corners*
0 Add a 4 corners polygon primitive as box body*
4,1,4,$2,$3,$4,$5,$6,$7,$8,$9,$2,$3,0*
0 Add four circle primitives for the rounded corners*
1,1,$1+$1,$2,$3*
1,1,$1+$1,$4,$5*
1,1,$1+$1,$6,$7*
1,1,$1+$1,$8,$9*
0 Add four rect primitives between the rounded corners*
20,1,$1+$1,$2,$3,$4,$5,0*
20,1,$1+$1,$4,$5,$6,$7,0*
20,1,$1+$1,$6,$7,$8,$9,0*
20,1,$1+$1,$8,$9,$2,$3,0*%
G04 Aperture macros list end*
%TA.AperFunction,ComponentPad*%
%ADD10C,1.600000*%
%TD*%
%TA.AperFunction,ComponentPad*%
%ADD11R,1.800000X1.800000*%
%TD*%
%TA.AperFunction,ComponentPad*%
%ADD12C,1.800000*%
%TD*%
%TA.AperFunction,ComponentPad*%
%ADD13C,1.500000*%
%TD*%
%TA.AperFunction,ComponentPad*%
%ADD14C,2.590800*%
%TD*%
%TA.AperFunction,ComponentPad*%
%ADD15RoundRect,0.250000X-0.550000X-0.550000X0.550000X-0.550000X0.550000X0.550000X-0.550000X0.550000X0*%
%TD*%
%TA.AperFunction,Conductor*%
%ADD16C,0.200000*%
%TD*%
G04 APERTURE END LIST*
D10*
%TO.P,R4,1*%
%TO.N,Net-(U1A--)*%
X128440000Y-75500000D03*
%TO.P,R4,2*%
%TO.N,Earth*%
X136060000Y-75500000D03*
%TD*%
D11*
%TO.P,D2,1,K*%
%TO.N,Net-(D2-K)*%
X163225000Y-128500000D03*
D12*
%TO.P,D2,2,A*%
%TO.N,Earth*%
X165765000Y-128500000D03*
%TD*%
D13*
%TO.P,R2,1*%
%TO.N,Net-(U1A-+)*%
X191800000Y-108000000D03*
%TO.P,R2,2*%
%TO.N,Earth*%
X195200000Y-108000000D03*
%TD*%
D10*
%TO.P,R5,1*%
%TO.N,Net-(BT1-+)*%
X111440000Y-89750000D03*
%TO.P,R5,2*%
%TO.N,Net-(U1B--)*%
X119060000Y-89750000D03*
%TD*%
%TO.P,R1,1*%
%TO.N,Net-(BT1-+)*%
X168880000Y-72500000D03*
%TO.P,R1,2*%
%TO.N,Net-(U1A-+)*%
X176500000Y-72500000D03*
%TD*%
D14*
%TO.P,BT1,1,+*%
%TO.N,Net-(BT1-+)*%
X196380000Y-84750000D03*
X204000000Y-82210000D03*
X204000000Y-87290000D03*
%TD*%
D10*
%TO.P,R8,1*%
%TO.N,Net-(R8-Pad1)*%
X163690000Y-113000000D03*
%TO.P,R8,2*%
%TO.N,Net-(D2-K)*%
X171310000Y-113000000D03*
%TD*%
%TO.P,R11,1*%
%TO.N,unconnected-(R11-Pad1)*%
X117690000Y-108500000D03*
%TO.P,R11,2*%
%TO.N,Earth*%
X125310000Y-108500000D03*
%TD*%
%TO.P,R10,1*%
%TO.N,Net-(BT1-+)*%
X178190000Y-84250000D03*
%TO.P,R10,2*%
%TO.N,Net-(U1D--)*%
X185810000Y-84250000D03*
%TD*%
%TO.P,R3,1*%
%TO.N,Net-(BT1-+)*%
X113440000Y-76000000D03*
%TO.P,R3,2*%
%TO.N,Net-(U1A--)*%
X121060000Y-76000000D03*
%TD*%
D11*
%TO.P,D3,1,K*%
%TO.N,Net-(D3-K)*%
X182225000Y-128500000D03*
D12*
%TO.P,D3,2,A*%
%TO.N,Earth*%
X184765000Y-128500000D03*
%TD*%
D11*
%TO.P,D1,1,K*%
%TO.N,Net-(D1-K)*%
X149210000Y-130750000D03*
D12*
%TO.P,D1,2,A*%
%TO.N,Earth*%
X151750000Y-130750000D03*
%TD*%
D15*
%TO.P,U1,1*%
%TO.N,Net-(R8-Pad1)*%
X170695000Y-93690000D03*
D10*
%TO.P,U1,2*%
%TO.N,Net-(R7-Pad1)*%
X170695000Y-96230000D03*
%TO.P,U1,3,V+*%
%TO.N,Net-(BT1-+)*%
X170695000Y-98770000D03*
%TO.P,U1,4,-*%
%TO.N,Net-(U1A--)*%
X170695000Y-101310000D03*
%TO.P,U1,5,+*%
%TO.N,Net-(U1A-+)*%
X178315000Y-101310000D03*
%TO.P,U1,6,-*%
%TO.N,Net-(U1B--)*%
X178315000Y-98770000D03*
%TO.P,U1,7,+*%
%TO.N,Net-(U1A-+)*%
X178315000Y-96230000D03*
%TO.P,U1,8,-*%
%TO.N,Net-(U1D--)*%
X178315000Y-93690000D03*
%TD*%
%TO.P,R9,1*%
%TO.N,Net-(R9-Pad1)*%
X173880000Y-120250000D03*
%TO.P,R9,2*%
%TO.N,Net-(D3-K)*%
X181500000Y-120250000D03*
%TD*%
%TO.P,R6,1*%
%TO.N,Net-(U1B--)*%
X110690000Y-99500000D03*
%TO.P,R6,2*%
%TO.N,Earth*%
X118310000Y-99500000D03*
%TD*%
%TO.P,R7,1*%
%TO.N,Net-(R7-Pad1)*%
X150690000Y-113250000D03*
%TO.P,R7,2*%
%TO.N,Net-(D1-K)*%
X158310000Y-113250000D03*
%TD*%
D16*
%TO.N,Net-(BT1-+)*%
X178771050Y-97669000D02*
X179416000Y-98313950D01*
X168880000Y-74940000D02*
X161190000Y-67250000D01*
X177214000Y-85226000D02*
X178190000Y-84250000D01*
X169594000Y-92904840D02*
X169594000Y-97669000D01*
X173681050Y-93568950D02*
X177781100Y-97669000D01*
X177858950Y-97331000D02*
X177214000Y-96686050D01*
X175219000Y-96327840D02*
X171480160Y-92589000D01*
X196380000Y-84750000D02*
X183799000Y-97331000D01*
X161190000Y-67250000D02*
X112500000Y-67250000D01*
X178771050Y-99871000D02*
X175219000Y-99871000D01*
X171480160Y-92589000D02*
X169909840Y-92589000D01*
X198920000Y-87290000D02*
X204000000Y-87290000D01*
X177781100Y-97669000D02*
X178771050Y-97669000D01*
X169909840Y-92589000D02*
X169594000Y-92904840D01*
X178190000Y-84250000D02*
X173681050Y-88758950D01*
X204000000Y-82210000D02*
X204000000Y-87290000D01*
X179416000Y-98313950D02*
X179416000Y-99226050D01*
X112500000Y-67250000D02*
X113440000Y-68190000D01*
X168880000Y-72500000D02*
X168880000Y-74940000D01*
X113440000Y-87750000D02*
X111440000Y-89750000D01*
X173681050Y-88758950D02*
X173681050Y-93568950D01*
X168880000Y-74940000D02*
X178190000Y-84250000D01*
X113440000Y-76000000D02*
X113440000Y-87750000D01*
X169594000Y-97669000D02*
X170695000Y-98770000D01*
X177214000Y-96686050D02*
X177214000Y-85226000D01*
X175219000Y-99871000D02*
X175219000Y-96327840D01*
X196380000Y-84750000D02*
X198920000Y-87290000D01*
X179416000Y-99226050D02*
X178771050Y-99871000D01*
X113440000Y-68190000D02*
X113440000Y-76000000D01*
X183799000Y-97331000D02*
X177858950Y-97331000D01*
%TO.N,Net-(D1-K)*%
X159661000Y-111899000D02*
X174706050Y-111899000D01*
X185966000Y-128997471D02*
X183012471Y-131951000D01*
X158310000Y-113250000D02*
X159661000Y-111899000D01*
X185966000Y-123158950D02*
X185966000Y-128997471D01*
X150411000Y-131951000D02*
X149210000Y-130750000D01*
X174706050Y-111899000D02*
X185966000Y-123158950D01*
X183012471Y-131951000D02*
X150411000Y-131951000D01*
%TO.N,Earth*%
X148009000Y-129549000D02*
X150549000Y-129549000D01*
X148009000Y-131951000D02*
X148009000Y-129549000D01*
X150549000Y-129549000D02*
X151750000Y-130750000D01*
X136060000Y-75500000D02*
X132810000Y-72250000D01*
X183178571Y-132352000D02*
X148410000Y-132352000D01*
X117250000Y-98440000D02*
X118310000Y-99500000D01*
X125310000Y-108500000D02*
X129500000Y-108500000D01*
X163515000Y-130750000D02*
X165765000Y-128500000D01*
X165765000Y-128500000D02*
X166966000Y-129701000D01*
X151750000Y-130750000D02*
X163515000Y-130750000D01*
X117250000Y-72250000D02*
X117250000Y-98440000D01*
X183564000Y-129701000D02*
X184765000Y-128500000D01*
X118310000Y-101500000D02*
X125310000Y-108500000D01*
X148410000Y-132352000D02*
X148009000Y-131951000D01*
X129500000Y-108500000D02*
X151750000Y-130750000D01*
X118310000Y-99500000D02*
X118310000Y-101500000D01*
X195200000Y-120330571D02*
X183178571Y-132352000D01*
X132810000Y-72250000D02*
X117250000Y-72250000D01*
X166966000Y-129701000D02*
X183564000Y-129701000D01*
X195200000Y-108000000D02*
X195200000Y-120330571D01*
%TO.N,Net-(D2-K)*%
X171310000Y-120415000D02*
X163225000Y-128500000D01*
X171310000Y-113000000D02*
X171310000Y-120415000D01*
%TO.N,Net-(D3-K)*%
X181500000Y-120250000D02*
X181500000Y-127775000D01*
X181500000Y-127775000D02*
X182225000Y-128500000D01*
%TO.N,Net-(U1A-+)*%
X176500000Y-72500000D02*
X186911000Y-82911000D01*
X191800000Y-108000000D02*
X185005000Y-108000000D01*
X186911000Y-87634000D02*
X178315000Y-96230000D01*
X186911000Y-82911000D02*
X186911000Y-87634000D01*
X185005000Y-108000000D02*
X178315000Y-101310000D01*
%TO.N,Net-(U1A--)*%
X121560000Y-75500000D02*
X121060000Y-76000000D01*
X128440000Y-75500000D02*
X154250000Y-101310000D01*
X128440000Y-75500000D02*
X121560000Y-75500000D01*
X154250000Y-101310000D02*
X170695000Y-101310000D01*
%TO.N,Net-(U1B--)*%
X133000000Y-70250000D02*
X140750000Y-78000000D01*
X133000000Y-78250000D02*
X128000000Y-73250000D01*
X141000000Y-78250000D02*
X133000000Y-78250000D01*
X178315000Y-98770000D02*
X157545000Y-78000000D01*
X116000000Y-94190000D02*
X116000000Y-70250000D01*
X128000000Y-73250000D02*
X120250000Y-73250000D01*
X140750000Y-78000000D02*
X141000000Y-78250000D01*
X110690000Y-99500000D02*
X116000000Y-94190000D01*
X116000000Y-70250000D02*
X133000000Y-70250000D01*
X119060000Y-74440000D02*
X119060000Y-89750000D01*
X120250000Y-73250000D02*
X119060000Y-74440000D01*
X157545000Y-78000000D02*
X140750000Y-78000000D01*
%TO.N,Net-(R7-Pad1)*%
X171796000Y-97331000D02*
X170695000Y-96230000D01*
X171796000Y-101766050D02*
X171796000Y-97331000D01*
X161529000Y-102411000D02*
X171151050Y-102411000D01*
X150690000Y-113250000D02*
X161529000Y-102411000D01*
X171151050Y-102411000D02*
X171796000Y-101766050D01*
%TO.N,Net-(R8-Pad1)*%
X160440000Y-116250000D02*
X154250000Y-116250000D01*
X172197000Y-95192000D02*
X170695000Y-93690000D01*
X154250000Y-116250000D02*
X154250000Y-115752950D01*
X172197000Y-101932150D02*
X172197000Y-95192000D01*
X154250000Y-115752950D02*
X167190950Y-102812000D01*
X163690000Y-113000000D02*
X160440000Y-116250000D01*
X167190950Y-102812000D02*
X171317150Y-102812000D01*
X171317150Y-102812000D02*
X172197000Y-101932150D01*
%TO.N,Net-(U1D--)*%
X185810000Y-84250000D02*
X185810000Y-86195000D01*
X185810000Y-86195000D02*
X178315000Y-93690000D01*
%TD*%
%TA.AperFunction,Conductor*%
%TO.N,Earth*%
G36*
X182810279Y-120855032D02*
G01*
X182826515Y-120868700D01*
X185329181Y-123371366D01*
X185362666Y-123432689D01*
X185365500Y-123459047D01*
X185365500Y-127052395D01*
X185345815Y-127119434D01*
X185293011Y-127165189D01*
X185223853Y-127175133D01*
X185203183Y-127170326D01*
X185092836Y-127134473D01*
X185092837Y-127134473D01*
X184875181Y-127100000D01*
X184654819Y-127100000D01*
X184437164Y-127134473D01*
X184227589Y-127202567D01*
X184031233Y-127302616D01*
X183967485Y-127348931D01*
X183967485Y-127348932D01*
X184676414Y-128057861D01*
X184591306Y-128080667D01*
X184488694Y-128139910D01*
X184404910Y-128223694D01*
X184345667Y-128326306D01*
X184322861Y-128411414D01*
X183661818Y-127750371D01*
X183628333Y-127689048D01*
X183625499Y-127662690D01*
X183625499Y-127552129D01*
X183625498Y-127552123D01*
X183625497Y-127552116D01*
X183619091Y-127492517D01*
X183568796Y-127357669D01*
X183568795Y-127357668D01*
X183568793Y-127357664D01*
X183482547Y-127242455D01*
X183482544Y-127242452D01*
X183367335Y-127156206D01*
X183367328Y-127156202D01*
X183232482Y-127105908D01*
X183232483Y-127105908D01*
X183172883Y-127099501D01*
X183172881Y-127099500D01*
X183172873Y-127099500D01*
X183172865Y-127099500D01*
X182224500Y-127099500D01*
X182157461Y-127079815D01*
X182111706Y-127027011D01*
X182100500Y-126975500D01*
X182100500Y-121479601D01*
X182120185Y-121412562D01*
X182168206Y-121369116D01*
X182181610Y-121362287D01*
X182347219Y-121241966D01*
X182491966Y-121097219D01*
X182491968Y-121097215D01*
X182491971Y-121097213D01*
X182612284Y-120931614D01*
X182612285Y-120931613D01*
X182612287Y-120931610D01*
X182628349Y-120900085D01*
X182676323Y-120849290D01*
X182744144Y-120832495D01*
X182810279Y-120855032D01*
G37*
%TD.AperFunction*%
%TA.AperFunction,Conductor*%
G36*
X207449486Y-61519685D02*
G01*
X207495241Y-61572489D01*
X207506269Y-61617385D01*
X208266659Y-75853553D01*
X211992652Y-145612436D01*
X211976572Y-145680430D01*
X211926283Y-145728936D01*
X211862424Y-145742884D01*
X96131039Y-139756777D01*
X96065106Y-139733656D01*
X96022139Y-139678559D01*
X96014169Y-139619556D01*
X96529149Y-134878711D01*
X97649500Y-134878711D01*
X97649500Y-135121288D01*
X97681161Y-135361785D01*
X97743947Y-135596104D01*
X97836773Y-135820205D01*
X97836776Y-135820212D01*
X97958064Y-136030289D01*
X97958066Y-136030292D01*
X97958067Y-136030293D01*
X98105733Y-136222736D01*
X98105739Y-136222743D01*
X98277256Y-136394260D01*
X98277262Y-136394265D01*
X98469711Y-136541936D01*
X98679788Y-136663224D01*
X98903900Y-136756054D01*
X99138211Y-136818838D01*
X99318586Y-136842584D01*
X99378711Y-136850500D01*
X99378712Y-136850500D01*
X99621289Y-136850500D01*
X99669388Y-136844167D01*
X99861789Y-136818838D01*
X100096100Y-136756054D01*
X100320212Y-136663224D01*
X100530289Y-136541936D01*
X100722738Y-136394265D01*
X100894265Y-136222738D01*
X101041936Y-136030289D01*
X101163224Y-135820212D01*
X101256054Y-135596100D01*
X101318838Y-135361789D01*
X101350500Y-135121288D01*
X101350500Y-134878712D01*
X101318838Y-134638211D01*
X101256054Y-134403900D01*
X101163224Y-134179788D01*
X101041936Y-133969711D01*
X100894265Y-133777262D01*
X100894260Y-133777256D01*
X100722743Y-133605739D01*
X100722736Y-133605733D01*
X100530293Y-133458067D01*
X100530292Y-133458066D01*
X100530289Y-133458064D01*
X100320212Y-133336776D01*
X100320205Y-133336773D01*
X100096104Y-133243947D01*
X99861785Y-133181161D01*
X99621289Y-133149500D01*
X99621288Y-133149500D01*
X99378712Y-133149500D01*
X99378711Y-133149500D01*
X99138214Y-133181161D01*
X98903895Y-133243947D01*
X98679794Y-133336773D01*
X98679785Y-133336777D01*
X98469706Y-133458067D01*
X98277263Y-133605733D01*
X98277256Y-133605739D01*
X98105739Y-133777256D01*
X98105733Y-133777263D01*
X97958067Y-133969706D01*
X97836777Y-134179785D01*
X97836773Y-134179794D01*
X97743947Y-134403895D01*
X97681161Y-134638214D01*
X97649500Y-134878711D01*
X96529149Y-134878711D01*
X99405686Y-108397648D01*
X116389500Y-108397648D01*
X116389500Y-108602351D01*
X116421522Y-108804534D01*
X116484781Y-108999223D01*
X116520602Y-109069524D01*
X116577585Y-109181359D01*
X116577715Y-109181613D01*
X116698028Y-109347213D01*
X116842786Y-109491971D01*
X116963226Y-109579474D01*
X117008390Y-109612287D01*
X117124607Y-109671503D01*
X117190776Y-109705218D01*
X117190778Y-109705218D01*
X117190781Y-109705220D01*
X117295137Y-109739127D01*
X117385465Y-109768477D01*
X117486557Y-109784488D01*
X117587648Y-109800500D01*
X117587649Y-109800500D01*
X117792351Y-109800500D01*
X117792352Y-109800500D01*
X117994534Y-109768477D01*
X118189219Y-109705220D01*
X118371610Y-109612287D01*
X118464590Y-109544732D01*
X118537213Y-109491971D01*
X118537215Y-109491968D01*
X118537219Y-109491966D01*
X118681966Y-109347219D01*
X118681968Y-109347215D01*
X118681971Y-109347213D01*
X118752599Y-109250000D01*
X118802287Y-109181610D01*
X118895220Y-108999219D01*
X118958477Y-108804534D01*
X118990500Y-108602352D01*
X118990500Y-108397682D01*
X124010000Y-108397682D01*
X124010000Y-108602317D01*
X124042009Y-108804417D01*
X124105244Y-108999031D01*
X124198141Y-109181350D01*
X124198147Y-109181359D01*
X124230523Y-109225921D01*
X124230524Y-109225922D01*
X124910000Y-108546446D01*
X124910000Y-108552661D01*
X124937259Y-108654394D01*
X124989920Y-108745606D01*
X125064394Y-108820080D01*
X125155606Y-108872741D01*
X125257339Y-108900000D01*
X125263553Y-108900000D01*
X124584076Y-109579474D01*
X124628650Y-109611859D01*
X124810968Y-109704755D01*
X125005582Y-109767990D01*
X125207683Y-109800000D01*
X125412317Y-109800000D01*
X125614417Y-109767990D01*
X125809031Y-109704755D01*
X125991349Y-109611859D01*
X126035921Y-109579474D01*
X125356447Y-108900000D01*
X125362661Y-108900000D01*
X125464394Y-108872741D01*
X125555606Y-108820080D01*
X125630080Y-108745606D01*
X125682741Y-108654394D01*
X125710000Y-108552661D01*
X125710000Y-108546447D01*
X126389474Y-109225921D01*
X126421859Y-109181349D01*
X126514755Y-108999031D01*
X126577990Y-108804417D01*
X126610000Y-108602317D01*
X126610000Y-108397682D01*
X126577990Y-108195582D01*
X126514755Y-108000968D01*
X126421859Y-107818650D01*
X126389474Y-107774077D01*
X126389474Y-107774076D01*
X125710000Y-108453551D01*
X125710000Y-108447339D01*
X125682741Y-108345606D01*
X125630080Y-108254394D01*
X125555606Y-108179920D01*
X125464394Y-108127259D01*
X125362661Y-108100000D01*
X125356446Y-108100000D01*
X126035922Y-107420524D01*
X126035921Y-107420523D01*
X125991359Y-107388147D01*
X125991350Y-107388141D01*
X125809031Y-107295244D01*
X125614417Y-107232009D01*
X125412317Y-107200000D01*
X125207683Y-107200000D01*
X125005582Y-107232009D01*
X124810968Y-107295244D01*
X124628644Y-107388143D01*
X124584077Y-107420523D01*
X124584077Y-107420524D01*
X125263554Y-108100000D01*
X125257339Y-108100000D01*
X125155606Y-108127259D01*
X125064394Y-108179920D01*
X124989920Y-108254394D01*
X124937259Y-108345606D01*
X124910000Y-108447339D01*
X124910000Y-108453553D01*
X124230524Y-107774077D01*
X124230523Y-107774077D01*
X124198143Y-107818644D01*
X124105244Y-108000968D01*
X124042009Y-108195582D01*
X124010000Y-108397682D01*
X118990500Y-108397682D01*
X118990500Y-108397648D01*
X118973878Y-108292705D01*
X118958477Y-108195465D01*
X118912077Y-108052661D01*
X118895220Y-108000781D01*
X118895218Y-108000778D01*
X118895218Y-108000776D01*
X118802419Y-107818650D01*
X118802287Y-107818390D01*
X118770092Y-107774077D01*
X118681971Y-107652786D01*
X118537213Y-107508028D01*
X118371613Y-107387715D01*
X118371612Y-107387714D01*
X118371610Y-107387713D01*
X118294427Y-107348386D01*
X118189223Y-107294781D01*
X117994534Y-107231522D01*
X117819995Y-107203878D01*
X117792352Y-107199500D01*
X117587648Y-107199500D01*
X117563329Y-107203351D01*
X117385465Y-107231522D01*
X117190776Y-107294781D01*
X117008386Y-107387715D01*
X116842786Y-107508028D01*
X116698028Y-107652786D01*
X116577715Y-107818386D01*
X116484781Y-108000776D01*
X116421522Y-108195465D01*
X116389500Y-108397648D01*
X99405686Y-108397648D01*
X100383322Y-99397648D01*
X109389500Y-99397648D01*
X109389500Y-99602351D01*
X109421522Y-99804534D01*
X109484781Y-99999223D01*
X109548691Y-100124653D01*
X109577585Y-100181359D01*
X109577715Y-100181613D01*
X109698028Y-100347213D01*
X109842786Y-100491971D01*
X109963226Y-100579474D01*
X110008390Y-100612287D01*
X110085929Y-100651795D01*
X110190776Y-100705218D01*
X110190778Y-100705218D01*
X110190781Y-100705220D01*
X110295137Y-100739127D01*
X110385465Y-100768477D01*
X110486557Y-100784488D01*
X110587648Y-100800500D01*
X110587649Y-100800500D01*
X110792351Y-100800500D01*
X110792352Y-100800500D01*
X110994534Y-100768477D01*
X111189219Y-100705220D01*
X111371610Y-100612287D01*
X111465615Y-100543989D01*
X111537213Y-100491971D01*
X111537215Y-100491968D01*
X111537219Y-100491966D01*
X111681966Y-100347219D01*
X111681968Y-100347215D01*
X111681971Y-100347213D01*
X111760076Y-100239709D01*
X111802287Y-100181610D01*
X111895220Y-99999219D01*
X111958477Y-99804534D01*
X111990500Y-99602352D01*
X111990500Y-99397682D01*
X117010000Y-99397682D01*
X117010000Y-99602317D01*
X117042009Y-99804417D01*
X117105244Y-99999031D01*
X117198141Y-100181350D01*
X117198147Y-100181359D01*
X117230523Y-100225921D01*
X117230524Y-100225922D01*
X117910000Y-99546446D01*
X117910000Y-99552661D01*
X117937259Y-99654394D01*
X117989920Y-99745606D01*
X118064394Y-99820080D01*
X118155606Y-99872741D01*
X118257339Y-99900000D01*
X118263553Y-99900000D01*
X117584076Y-100579474D01*
X117628650Y-100611859D01*
X117810968Y-100704755D01*
X118005582Y-100767990D01*
X118207683Y-100800000D01*
X118412317Y-100800000D01*
X118614417Y-100767990D01*
X118809031Y-100704755D01*
X118991349Y-100611859D01*
X119035921Y-100579474D01*
X118356447Y-99900000D01*
X118362661Y-99900000D01*
X118464394Y-99872741D01*
X118555606Y-99820080D01*
X118630080Y-99745606D01*
X118682741Y-99654394D01*
X118710000Y-99552661D01*
X118710000Y-99546447D01*
X119389474Y-100225921D01*
X119421859Y-100181349D01*
X119514755Y-99999031D01*
X119577990Y-99804417D01*
X119610000Y-99602317D01*
X119610000Y-99397682D01*
X119577990Y-99195582D01*
X119514755Y-99000968D01*
X119421859Y-98818650D01*
X119389474Y-98774077D01*
X119389474Y-98774076D01*
X118710000Y-99453551D01*
X118710000Y-99447339D01*
X118682741Y-99345606D01*
X118630080Y-99254394D01*
X118555606Y-99179920D01*
X118464394Y-99127259D01*
X118362661Y-99100000D01*
X118356446Y-99100000D01*
X119035922Y-98420524D01*
X119035921Y-98420523D01*
X118991359Y-98388147D01*
X118991350Y-98388141D01*
X118809031Y-98295244D01*
X118614417Y-98232009D01*
X118412317Y-98200000D01*
X118207683Y-98200000D01*
X118005582Y-98232009D01*
X117810968Y-98295244D01*
X117628644Y-98388143D01*
X117584077Y-98420523D01*
X117584077Y-98420524D01*
X118263554Y-99100000D01*
X118257339Y-99100000D01*
X118155606Y-99127259D01*
X118064394Y-99179920D01*
X117989920Y-99254394D01*
X117937259Y-99345606D01*
X117910000Y-99447339D01*
X117910000Y-99453553D01*
X117230524Y-98774077D01*
X117230523Y-98774077D01*
X117198143Y-98818644D01*
X117105244Y-99000968D01*
X117042009Y-99195582D01*
X117010000Y-99397682D01*
X111990500Y-99397682D01*
X111990500Y-99397648D01*
X111958477Y-99195466D01*
X111953825Y-99181151D01*
X111951832Y-99111312D01*
X111984075Y-99055158D01*
X116368713Y-94670521D01*
X116368716Y-94670520D01*
X116480520Y-94558716D01*
X116530639Y-94471904D01*
X116559577Y-94421785D01*
X116600501Y-94269057D01*
X116600501Y-94110943D01*
X116600501Y-94103348D01*
X116600500Y-94103330D01*
X116600500Y-70974500D01*
X116620185Y-70907461D01*
X116672989Y-70861706D01*
X116724500Y-70850500D01*
X132699903Y-70850500D01*
X132766942Y-70870185D01*
X132787584Y-70886819D01*
X135909118Y-74008353D01*
X135942603Y-74069676D01*
X135937619Y-74139368D01*
X135895747Y-74195301D01*
X135840835Y-74218507D01*
X135755582Y-74232009D01*
X135560968Y-74295244D01*
X135378644Y-74388143D01*
X135334077Y-74420523D01*
X135334077Y-74420524D01*
X136013554Y-75100000D01*
X136007339Y-75100000D01*
X135905606Y-75127259D01*
X135814394Y-75179920D01*
X135739920Y-75254394D01*
X135687259Y-75345606D01*
X135660000Y-75447339D01*
X135660000Y-75453553D01*
X134980524Y-74774077D01*
X134980523Y-74774077D01*
X134948143Y-74818644D01*
X134855244Y-75000968D01*
X134792009Y-75195582D01*
X134760000Y-75397682D01*
X134760000Y-75602317D01*
X134792009Y-75804417D01*
X134855244Y-75999031D01*
X134948141Y-76181350D01*
X134948147Y-76181359D01*
X134980523Y-76225921D01*
X134980524Y-76225922D01*
X135660000Y-75546446D01*
X135660000Y-75552661D01*
X135687259Y-75654394D01*
X135739920Y-75745606D01*
X135814394Y-75820080D01*
X135905606Y-75872741D01*
X136007339Y-75900000D01*
X136013553Y-75900000D01*
X135334076Y-76579474D01*
X135378650Y-76611859D01*
X135560968Y-76704755D01*
X135755582Y-76767990D01*
X135957683Y-76800000D01*
X136162317Y-76800000D01*
X136364417Y-76767990D01*
X136559031Y-76704755D01*
X136741349Y-76611859D01*
X136785921Y-76579474D01*
X136106447Y-75900000D01*
X136112661Y-75900000D01*
X136214394Y-75872741D01*
X136305606Y-75820080D01*
X136380080Y-75745606D01*
X136432741Y-75654394D01*
X136460000Y-75552661D01*
X136460000Y-75546446D01*
X137139474Y-76225921D01*
X137171859Y-76181349D01*
X137264755Y-75999031D01*
X137327988Y-75804423D01*
X137341491Y-75719165D01*
X137371420Y-75656030D01*
X137430731Y-75619098D01*
X137500594Y-75620095D01*
X137551646Y-75650881D01*
X139338584Y-77437819D01*
X139372069Y-77499142D01*
X139367085Y-77568834D01*
X139325213Y-77624767D01*
X139259749Y-77649184D01*
X139250903Y-77649500D01*
X133300097Y-77649500D01*
X133233058Y-77629815D01*
X133212416Y-77613181D01*
X128487590Y-72888355D01*
X128487588Y-72888352D01*
X128368717Y-72769481D01*
X128368716Y-72769480D01*
X128281904Y-72719360D01*
X128281904Y-72719359D01*
X128281900Y-72719358D01*
X128231785Y-72690423D01*
X128079057Y-72649499D01*
X127920943Y-72649499D01*
X127913347Y-72649499D01*
X127913331Y-72649500D01*
X120329057Y-72649500D01*
X120170943Y-72649500D01*
X120018215Y-72690423D01*
X120018214Y-72690423D01*
X120018212Y-72690424D01*
X120018209Y-72690425D01*
X119968096Y-72719359D01*
X119968095Y-72719360D01*
X119924689Y-72744420D01*
X119881285Y-72769479D01*
X119881282Y-72769481D01*
X118579481Y-74071282D01*
X118579479Y-74071285D01*
X118529361Y-74158094D01*
X118529359Y-74158096D01*
X118500425Y-74208209D01*
X118500424Y-74208210D01*
X118500423Y-74208215D01*
X118459499Y-74360943D01*
X118459499Y-74360945D01*
X118459499Y-74529046D01*
X118459500Y-74529059D01*
X118459500Y-88520397D01*
X118439815Y-88587436D01*
X118391800Y-88630879D01*
X118378389Y-88637712D01*
X118212786Y-88758028D01*
X118068028Y-88902786D01*
X117947715Y-89068386D01*
X117854781Y-89250776D01*
X117791522Y-89445465D01*
X117759500Y-89647648D01*
X117759500Y-89852351D01*
X117791522Y-90054534D01*
X117854781Y-90249223D01*
X117947715Y-90431613D01*
X118068028Y-90597213D01*
X118212786Y-90741971D01*
X118367749Y-90854556D01*
X118378390Y-90862287D01*
X118494607Y-90921503D01*
X118560776Y-90955218D01*
X118560778Y-90955218D01*
X118560781Y-90955220D01*
X118665137Y-90989127D01*
X118755465Y-91018477D01*
X118856557Y-91034488D01*
X118957648Y-91050500D01*
X118957649Y-91050500D01*
X119162351Y-91050500D01*
X119162352Y-91050500D01*
X119364534Y-91018477D01*
X119559219Y-90955220D01*
X119741610Y-90862287D01*
X119834590Y-90794732D01*
X119907213Y-90741971D01*
X119907215Y-90741968D01*
X119907219Y-90741966D01*
X120051966Y-90597219D01*
X120051968Y-90597215D01*
X120051971Y-90597213D01*
X120104732Y-90524590D01*
X120172287Y-90431610D01*
X120265220Y-90249219D01*
X120328477Y-90054534D01*
X120360500Y-89852352D01*
X120360500Y-89647648D01*
X120328477Y-89445466D01*
X120265220Y-89250781D01*
X120265218Y-89250778D01*
X120265218Y-89250776D01*
X120231503Y-89184607D01*
X120172287Y-89068390D01*
X120128183Y-89007685D01*
X120051971Y-88902786D01*
X119907213Y-88758028D01*
X119741610Y-88637712D01*
X119728200Y-88630879D01*
X119677406Y-88582903D01*
X119660500Y-88520397D01*
X119660500Y-76634420D01*
X119680185Y-76567381D01*
X119732989Y-76521626D01*
X119802147Y-76511682D01*
X119865703Y-76540707D01*
X119894984Y-76578123D01*
X119942146Y-76670684D01*
X119947715Y-76681614D01*
X120068028Y-76847213D01*
X120212786Y-76991971D01*
X120367749Y-77104556D01*
X120378390Y-77112287D01*
X120459499Y-77153614D01*
X120560776Y-77205218D01*
X120560778Y-77205218D01*
X120560781Y-77205220D01*
X120635818Y-77229601D01*
X120755465Y-77268477D01*
X120856557Y-77284488D01*
X120957648Y-77300500D01*
X120957649Y-77300500D01*
X121162351Y-77300500D01*
X121162352Y-77300500D01*
X121364534Y-77268477D01*
X121559219Y-77205220D01*
X121741610Y-77112287D01*
X121834590Y-77044732D01*
X121907213Y-76991971D01*
X121907215Y-76991968D01*
X121907219Y-76991966D01*
X122051966Y-76847219D01*
X122051968Y-76847215D01*
X122051971Y-76847213D01*
X122112553Y-76763828D01*
X122172287Y-76681610D01*
X122265220Y-76499219D01*
X122328477Y-76304534D01*
X122344226Y-76205102D01*
X122374155Y-76141967D01*
X122433467Y-76105036D01*
X122466699Y-76100500D01*
X127210398Y-76100500D01*
X127277437Y-76120185D01*
X127320883Y-76168205D01*
X127327715Y-76181614D01*
X127448028Y-76347213D01*
X127592786Y-76491971D01*
X127713226Y-76579474D01*
X127758390Y-76612287D01*
X127874607Y-76671503D01*
X127940776Y-76705218D01*
X127940778Y-76705218D01*
X127940781Y-76705220D01*
X128045137Y-76739127D01*
X128135465Y-76768477D01*
X128236557Y-76784488D01*
X128337648Y-76800500D01*
X128337649Y-76800500D01*
X128542351Y-76800500D01*
X128542352Y-76800500D01*
X128744534Y-76768477D01*
X128758842Y-76763827D01*
X128828682Y-76761831D01*
X128884842Y-76794077D01*
X153765139Y-101674374D01*
X153765149Y-101674385D01*
X153769479Y-101678715D01*
X153769480Y-101678716D01*
X153881284Y-101790520D01*
X153968095Y-101840639D01*
X153968097Y-101840641D01*
X153989656Y-101853088D01*
X154018215Y-101869577D01*
X154170943Y-101910501D01*
X154170946Y-101910501D01*
X154336653Y-101910501D01*
X154336669Y-101910500D01*
X160880902Y-101910500D01*
X160947941Y-101930185D01*
X160993696Y-101982989D01*
X161003640Y-102052147D01*
X160974615Y-102115703D01*
X160968583Y-102122181D01*
X151134842Y-111955921D01*
X151073519Y-111989406D01*
X151008848Y-111986173D01*
X150994534Y-111981522D01*
X150819995Y-111953878D01*
X150792352Y-111949500D01*
X150587648Y-111949500D01*
X150563329Y-111953351D01*
X150385465Y-111981522D01*
X150190776Y-112044781D01*
X150008386Y-112137715D01*
X149842786Y-112258028D01*
X149698028Y-112402786D01*
X149577715Y-112568386D01*
X149484781Y-112750776D01*
X149421522Y-112945465D01*
X149389500Y-113147648D01*
X149389500Y-113352351D01*
X149421522Y-113554534D01*
X149484781Y-113749223D01*
X149577715Y-113931613D01*
X149698028Y-114097213D01*
X149842786Y-114241971D01*
X149997749Y-114354556D01*
X150008390Y-114362287D01*
X150124607Y-114421503D01*
X150190776Y-114455218D01*
X150190778Y-114455218D01*
X150190781Y-114455220D01*
X150295137Y-114489127D01*
X150385465Y-114518477D01*
X150486557Y-114534488D01*
X150587648Y-114550500D01*
X150587649Y-114550500D01*
X150792351Y-114550500D01*
X150792352Y-114550500D01*
X150994534Y-114518477D01*
X151189219Y-114455220D01*
X151371610Y-114362287D01*
X151465494Y-114294077D01*
X151537213Y-114241971D01*
X151537215Y-114241968D01*
X151537219Y-114241966D01*
X151681966Y-114097219D01*
X151681968Y-114097215D01*
X151681971Y-114097213D01*
X151734732Y-114024590D01*
X151802287Y-113931610D01*
X151895220Y-113749219D01*
X151958477Y-113554534D01*
X151990500Y-113352352D01*
X151990500Y-113147648D01*
X151958477Y-112945466D01*
X151953825Y-112931151D01*
X151951832Y-112861312D01*
X151984075Y-112805158D01*
X161741417Y-103047819D01*
X161802740Y-103014334D01*
X161829098Y-103011500D01*
X165842853Y-103011500D01*
X165909892Y-103031185D01*
X165955647Y-103083989D01*
X165965591Y-103153147D01*
X165936566Y-103216703D01*
X165930534Y-103223180D01*
X159903714Y-109250000D01*
X153881286Y-115272428D01*
X153769481Y-115384232D01*
X153769479Y-115384235D01*
X153719361Y-115471044D01*
X153719359Y-115471046D01*
X153690425Y-115521159D01*
X153690424Y-115521160D01*
X153690423Y-115521165D01*
X153649499Y-115673893D01*
X153649499Y-115673895D01*
X153649499Y-115841996D01*
X153649500Y-115842009D01*
X153649500Y-116329056D01*
X153690423Y-116481783D01*
X153690426Y-116481790D01*
X153769475Y-116618709D01*
X153769478Y-116618713D01*
X153769480Y-116618716D01*
X153881284Y-116730520D01*
X153881286Y-116730521D01*
X153881290Y-116730524D01*
X154018209Y-116809573D01*
X154018216Y-116809577D01*
X154170943Y-116850500D01*
X154329057Y-116850500D01*
X160353331Y-116850500D01*
X160353347Y-116850501D01*
X160360943Y-116850501D01*
X160519054Y-116850501D01*
X160519057Y-116850501D01*
X160671785Y-116809577D01*
X160721904Y-116780639D01*
X160808716Y-116730520D01*
X160920520Y-116618716D01*
X160920520Y-116618714D01*
X160930728Y-116608507D01*
X160930730Y-116608504D01*
X163245158Y-114294075D01*
X163306479Y-114260592D01*
X163371151Y-114263825D01*
X163385466Y-114268477D01*
X163587648Y-114300500D01*
X163587649Y-114300500D01*
X163792351Y-114300500D01*
X163792352Y-114300500D01*
X163994534Y-114268477D01*
X164189219Y-114205220D01*
X164371610Y-114112287D01*
X164464590Y-114044732D01*
X164537213Y-113991971D01*
X164537215Y-113991968D01*
X164537219Y-113991966D01*
X164681966Y-113847219D01*
X164681968Y-113847215D01*
X164681971Y-113847213D01*
X164734732Y-113774590D01*
X164802287Y-113681610D01*
X164895220Y-113499219D01*
X164958477Y-113304534D01*
X164990500Y-113102352D01*
X164990500Y-112897648D01*
X164958477Y-112695466D01*
X164958475Y-112695462D01*
X164958475Y-112695457D01*
X164947545Y-112661817D01*
X164945550Y-112591976D01*
X164981631Y-112532144D01*
X165044332Y-112501316D01*
X165065476Y-112499500D01*
X169934524Y-112499500D01*
X170001563Y-112519185D01*
X170047318Y-112571989D01*
X170057262Y-112641147D01*
X170052455Y-112661817D01*
X170041524Y-112695457D01*
X170041523Y-112695464D01*
X170009500Y-112897648D01*
X170009500Y-113102351D01*
X170041522Y-113304534D01*
X170104781Y-113499223D01*
X170197715Y-113681613D01*
X170318028Y-113847213D01*
X170318034Y-113847219D01*
X170462781Y-113991966D01*
X170628390Y-114112287D01*
X170641793Y-114119116D01*
X170692589Y-114167088D01*
X170709500Y-114229601D01*
X170709500Y-120114902D01*
X170689815Y-120181941D01*
X170673181Y-120202583D01*
X163812582Y-127063181D01*
X163751259Y-127096666D01*
X163724901Y-127099500D01*
X162277129Y-127099500D01*
X162277123Y-127099501D01*
X162217516Y-127105908D01*
X162082671Y-127156202D01*
X162082664Y-127156206D01*
X161967455Y-127242452D01*
X161967452Y-127242455D01*
X161881206Y-127357664D01*
X161881202Y-127357671D01*
X161830908Y-127492517D01*
X161824501Y-127552116D01*
X161824501Y-127552123D01*
X161824500Y-127552135D01*
X161824500Y-129447870D01*
X161824501Y-129447876D01*
X161830908Y-129507483D01*
X161881202Y-129642328D01*
X161881206Y-129642335D01*
X161967452Y-129757544D01*
X161967455Y-129757547D01*
X162082664Y-129843793D01*
X162082671Y-129843797D01*
X162217517Y-129894091D01*
X162217516Y-129894091D01*
X162224444Y-129894835D01*
X162277127Y-129900500D01*
X164172872Y-129900499D01*
X164232483Y-129894091D01*
X164367331Y-129843796D01*
X164482546Y-129757546D01*
X164568796Y-129642331D01*
X164602258Y-129552616D01*
X164604883Y-129545575D01*
X164619091Y-129507483D01*
X164625500Y-129447873D01*
X164625499Y-129337304D01*
X164645183Y-129270268D01*
X164661818Y-129249626D01*
X165322861Y-128588583D01*
X165345667Y-128673694D01*
X165404910Y-128776306D01*
X165488694Y-128860090D01*
X165591306Y-128919333D01*
X165676414Y-128942137D01*
X164967485Y-129651065D01*
X164967485Y-129651066D01*
X165031243Y-129697388D01*
X165227589Y-129797432D01*
X165437164Y-129865526D01*
X165654819Y-129900000D01*
X165875181Y-129900000D01*
X166092835Y-129865526D01*
X166302410Y-129797432D01*
X166498760Y-129697386D01*
X166562513Y-129651066D01*
X166562514Y-129651066D01*
X165853585Y-128942138D01*
X165938694Y-128919333D01*
X166041306Y-128860090D01*
X166125090Y-128776306D01*
X166184333Y-128673694D01*
X166207137Y-128588585D01*
X166916066Y-129297514D01*
X166916066Y-129297513D01*
X166962386Y-129233760D01*
X167062432Y-129037410D01*
X167130526Y-128827835D01*
X167165000Y-128610181D01*
X167165000Y-128389818D01*
X167130526Y-128172164D01*
X167062432Y-127962589D01*
X166962388Y-127766243D01*
X166916066Y-127702485D01*
X166916065Y-127702485D01*
X166207137Y-128411413D01*
X166184333Y-128326306D01*
X166125090Y-128223694D01*
X166041306Y-128139910D01*
X165938694Y-128080667D01*
X165853584Y-128057861D01*
X166562513Y-127348932D01*
X166498756Y-127302611D01*
X166302410Y-127202567D01*
X166092835Y-127134473D01*
X165875181Y-127100000D01*
X165773595Y-127100000D01*
X165706556Y-127080315D01*
X165660801Y-127027511D01*
X165650857Y-126958353D01*
X165679882Y-126894797D01*
X165685896Y-126888337D01*
X171790520Y-120783716D01*
X171869577Y-120646784D01*
X171910501Y-120494057D01*
X171910501Y-120335942D01*
X171910501Y-120328347D01*
X171910500Y-120328329D01*
X171910500Y-120147648D01*
X172579500Y-120147648D01*
X172579500Y-120352351D01*
X172611522Y-120554534D01*
X172674781Y-120749223D01*
X172767715Y-120931613D01*
X172888028Y-121097213D01*
X173032786Y-121241971D01*
X173187749Y-121354556D01*
X173198390Y-121362287D01*
X173279499Y-121403614D01*
X173380776Y-121455218D01*
X173380778Y-121455218D01*
X173380781Y-121455220D01*
X173455818Y-121479601D01*
X173575465Y-121518477D01*
X173676557Y-121534488D01*
X173777648Y-121550500D01*
X173777649Y-121550500D01*
X173982351Y-121550500D01*
X173982352Y-121550500D01*
X174184534Y-121518477D01*
X174379219Y-121455220D01*
X174561610Y-121362287D01*
X174654590Y-121294732D01*
X174727213Y-121241971D01*
X174727215Y-121241968D01*
X174727219Y-121241966D01*
X174871966Y-121097219D01*
X174871968Y-121097215D01*
X174871971Y-121097213D01*
X174924732Y-121024590D01*
X174992287Y-120931610D01*
X175085220Y-120749219D01*
X175148477Y-120554534D01*
X175180500Y-120352352D01*
X175180500Y-120147648D01*
X175148477Y-119945466D01*
X175085220Y-119750781D01*
X175085218Y-119750778D01*
X175085218Y-119750776D01*
X175051503Y-119684607D01*
X174992287Y-119568390D01*
X174984556Y-119557749D01*
X174871971Y-119402786D01*
X174727213Y-119258028D01*
X174561613Y-119137715D01*
X174561612Y-119137714D01*
X174561610Y-119137713D01*
X174504653Y-119108691D01*
X174379223Y-119044781D01*
X174184534Y-118981522D01*
X174009995Y-118953878D01*
X173982352Y-118949500D01*
X173777648Y-118949500D01*
X173753329Y-118953351D01*
X173575465Y-118981522D01*
X173380776Y-119044781D01*
X173198386Y-119137715D01*
X173032786Y-119258028D01*
X172888028Y-119402786D01*
X172767715Y-119568386D01*
X172674781Y-119750776D01*
X172611522Y-119945465D01*
X172579500Y-120147648D01*
X171910500Y-120147648D01*
X171910500Y-114229601D01*
X171930185Y-114162562D01*
X171978206Y-114119116D01*
X171991610Y-114112287D01*
X172157219Y-113991966D01*
X172301966Y-113847219D01*
X172301968Y-113847215D01*
X172301971Y-113847213D01*
X172354732Y-113774590D01*
X172422287Y-113681610D01*
X172515220Y-113499219D01*
X172578477Y-113304534D01*
X172610500Y-113102352D01*
X172610500Y-112897648D01*
X172578477Y-112695466D01*
X172578475Y-112695462D01*
X172578475Y-112695457D01*
X172567545Y-112661817D01*
X172565550Y-112591976D01*
X172601631Y-112532144D01*
X172664332Y-112501316D01*
X172685476Y-112499500D01*
X174405953Y-112499500D01*
X174472992Y-112519185D01*
X174493634Y-112535819D01*
X180881299Y-118923484D01*
X180914784Y-118984807D01*
X180909800Y-119054499D01*
X180867928Y-119110432D01*
X180849916Y-119121648D01*
X180818388Y-119137713D01*
X180652786Y-119258028D01*
X180508028Y-119402786D01*
X180387715Y-119568386D01*
X180294781Y-119750776D01*
X180231522Y-119945465D01*
X180199500Y-120147648D01*
X180199500Y-120352351D01*
X180231522Y-120554534D01*
X180294781Y-120749223D01*
X180387715Y-120931613D01*
X180508028Y-121097213D01*
X180508034Y-121097219D01*
X180652781Y-121241966D01*
X180818390Y-121362287D01*
X180831793Y-121369116D01*
X180882589Y-121417088D01*
X180899500Y-121479601D01*
X180899500Y-127292513D01*
X180884333Y-127351939D01*
X180881203Y-127357670D01*
X180830908Y-127492517D01*
X180824501Y-127552116D01*
X180824501Y-127552123D01*
X180824500Y-127552135D01*
X180824500Y-129447870D01*
X180824501Y-129447876D01*
X180830908Y-129507483D01*
X180881202Y-129642328D01*
X180881206Y-129642335D01*
X180967452Y-129757544D01*
X180967455Y-129757547D01*
X181082664Y-129843793D01*
X181082671Y-129843797D01*
X181217517Y-129894091D01*
X181217516Y-129894091D01*
X181224444Y-129894835D01*
X181277127Y-129900500D01*
X183172872Y-129900499D01*
X183232483Y-129894091D01*
X183367331Y-129843796D01*
X183482546Y-129757546D01*
X183568796Y-129642331D01*
X183619091Y-129507483D01*
X183625500Y-129447873D01*
X183625499Y-129337304D01*
X183645183Y-129270268D01*
X183661818Y-129249626D01*
X184322861Y-128588584D01*
X184345667Y-128673694D01*
X184404910Y-128776306D01*
X184488694Y-128860090D01*
X184591306Y-128919333D01*
X184676413Y-128942137D01*
X183967485Y-129651065D01*
X183967485Y-129651066D01*
X184031243Y-129697388D01*
X184134620Y-129750062D01*
X184185416Y-129798037D01*
X184202211Y-129865858D01*
X184179673Y-129931993D01*
X184166006Y-129948228D01*
X182800055Y-131314181D01*
X182738732Y-131347666D01*
X182712374Y-131350500D01*
X153197604Y-131350500D01*
X153130565Y-131330815D01*
X153084810Y-131278011D01*
X153074866Y-131208853D01*
X153079673Y-131188182D01*
X153115526Y-131077835D01*
X153150000Y-130860181D01*
X153150000Y-130639818D01*
X153115526Y-130422164D01*
X153047432Y-130212589D01*
X152947388Y-130016243D01*
X152901065Y-129952485D01*
X152192137Y-130661413D01*
X152169333Y-130576306D01*
X152110090Y-130473694D01*
X152026306Y-130389910D01*
X151923694Y-130330667D01*
X151838583Y-130307861D01*
X152547513Y-129598932D01*
X152483756Y-129552611D01*
X152287410Y-129452567D01*
X152077835Y-129384473D01*
X151860181Y-129350000D01*
X151639819Y-129350000D01*
X151422164Y-129384473D01*
X151212589Y-129452567D01*
X151016233Y-129552616D01*
X150952485Y-129598931D01*
X150952485Y-129598932D01*
X151661414Y-130307861D01*
X151576306Y-130330667D01*
X151473694Y-130389910D01*
X151389910Y-130473694D01*
X151330667Y-130576306D01*
X151307861Y-130661414D01*
X150646818Y-130000371D01*
X150613333Y-129939048D01*
X150610499Y-129912690D01*
X150610499Y-129802129D01*
X150610498Y-129802123D01*
X150610497Y-129802116D01*
X150604091Y-129742517D01*
X150553796Y-129607669D01*
X150553795Y-129607668D01*
X150553793Y-129607664D01*
X150467547Y-129492455D01*
X150467544Y-129492452D01*
X150352335Y-129406206D01*
X150352328Y-129406202D01*
X150217482Y-129355908D01*
X150217483Y-129355908D01*
X150157883Y-129349501D01*
X150157881Y-129349500D01*
X150157873Y-129349500D01*
X150157864Y-129349500D01*
X148262129Y-129349500D01*
X148262123Y-129349501D01*
X148202516Y-129355908D01*
X148067671Y-129406202D01*
X148067664Y-129406206D01*
X147952455Y-129492452D01*
X147952452Y-129492455D01*
X147866206Y-129607664D01*
X147866202Y-129607671D01*
X147815908Y-129742517D01*
X147809501Y-129802116D01*
X147809501Y-129802123D01*
X147809500Y-129802135D01*
X147809500Y-131697870D01*
X147809501Y-131697876D01*
X147815908Y-131757483D01*
X147866202Y-131892328D01*
X147866206Y-131892335D01*
X147952452Y-132007544D01*
X147952455Y-132007547D01*
X148067664Y-132093793D01*
X148067671Y-132093797D01*
X148202517Y-132144091D01*
X148202516Y-132144091D01*
X148209444Y-132144835D01*
X148262127Y-132150500D01*
X149709902Y-132150499D01*
X149739342Y-132159143D01*
X149769329Y-132165667D01*
X149774344Y-132169421D01*
X149776941Y-132170184D01*
X149797583Y-132186818D01*
X149926139Y-132315374D01*
X149926149Y-132315385D01*
X149930479Y-132319715D01*
X149930480Y-132319716D01*
X150042284Y-132431520D01*
X150042286Y-132431521D01*
X150042290Y-132431524D01*
X150179209Y-132510573D01*
X150179216Y-132510577D01*
X150291019Y-132540534D01*
X150331942Y-132551500D01*
X150331943Y-132551500D01*
X182925802Y-132551500D01*
X182925818Y-132551501D01*
X182933414Y-132551501D01*
X183091525Y-132551501D01*
X183091528Y-132551501D01*
X183244256Y-132510577D01*
X183294375Y-132481639D01*
X183381187Y-132431520D01*
X183492991Y-132319716D01*
X183492991Y-132319714D01*
X183503199Y-132309507D01*
X183503200Y-132309504D01*
X186446520Y-129366187D01*
X186525577Y-129229255D01*
X186566501Y-129076528D01*
X186566501Y-128918413D01*
X186566501Y-128910818D01*
X186566500Y-128910800D01*
X186566500Y-123248009D01*
X186566501Y-123247996D01*
X186566501Y-123079895D01*
X186566501Y-123079893D01*
X186525577Y-122927165D01*
X186496639Y-122877045D01*
X186446520Y-122790234D01*
X186334716Y-122678430D01*
X186334715Y-122678429D01*
X186330385Y-122674099D01*
X186330374Y-122674089D01*
X175193640Y-111537355D01*
X175193638Y-111537352D01*
X175074767Y-111418481D01*
X175074766Y-111418480D01*
X174987954Y-111368360D01*
X174987954Y-111368359D01*
X174987950Y-111368358D01*
X174937835Y-111339423D01*
X174785107Y-111298499D01*
X174626993Y-111298499D01*
X174619397Y-111298499D01*
X174619381Y-111298500D01*
X159853046Y-111298500D01*
X159786007Y-111278815D01*
X159740252Y-111226011D01*
X159730308Y-111156853D01*
X159759333Y-111093297D01*
X159765365Y-111086819D01*
X163503799Y-107348386D01*
X167403366Y-103448819D01*
X167464689Y-103415334D01*
X167491047Y-103412500D01*
X171230481Y-103412500D01*
X171230497Y-103412501D01*
X171238093Y-103412501D01*
X171396204Y-103412501D01*
X171396207Y-103412501D01*
X171548935Y-103371577D01*
X171599054Y-103342639D01*
X171685866Y-103292520D01*
X171797670Y-103180716D01*
X171797670Y-103180714D01*
X171807878Y-103170507D01*
X171807879Y-103170504D01*
X172677520Y-102300866D01*
X172756577Y-102163935D01*
X172797501Y-102011207D01*
X172797501Y-101853092D01*
X172797501Y-101845497D01*
X172797500Y-101845479D01*
X172797500Y-95284973D01*
X172797500Y-95271061D01*
X172797501Y-95271058D01*
X172797501Y-95112943D01*
X172783270Y-95059834D01*
X172782491Y-95047503D01*
X172787582Y-95024997D01*
X172788131Y-95001926D01*
X172795146Y-94991559D01*
X172797908Y-94979355D01*
X172814358Y-94963174D01*
X172827293Y-94944063D01*
X172838797Y-94939136D01*
X172847720Y-94930360D01*
X172870309Y-94925641D01*
X172891521Y-94916558D01*
X172903862Y-94918633D01*
X172916114Y-94916074D01*
X172937668Y-94924317D01*
X172960424Y-94928144D01*
X172975217Y-94938678D01*
X172981374Y-94941033D01*
X172984510Y-94945295D01*
X172993925Y-94952000D01*
X174582181Y-96540256D01*
X174615666Y-96601579D01*
X174618500Y-96627937D01*
X174618500Y-99950057D01*
X174625243Y-99975220D01*
X174659423Y-100102783D01*
X174659426Y-100102790D01*
X174738475Y-100239709D01*
X174738478Y-100239713D01*
X174738480Y-100239716D01*
X174850284Y-100351520D01*
X174850286Y-100351521D01*
X174850290Y-100351524D01*
X174939960Y-100403294D01*
X174987216Y-100430577D01*
X175139943Y-100471500D01*
X175298057Y-100471500D01*
X177080303Y-100471500D01*
X177147342Y-100491185D01*
X177193097Y-100543989D01*
X177203041Y-100613147D01*
X177190788Y-100651795D01*
X177109781Y-100810776D01*
X177046522Y-101005465D01*
X177014500Y-101207648D01*
X177014500Y-101412351D01*
X177046522Y-101614534D01*
X177109781Y-101809223D01*
X177161385Y-101910500D01*
X177198320Y-101982989D01*
X177202715Y-101991613D01*
X177323028Y-102157213D01*
X177467786Y-102301971D01*
X177622749Y-102414556D01*
X177633390Y-102422287D01*
X177749607Y-102481503D01*
X177815776Y-102515218D01*
X177815778Y-102515218D01*
X177815781Y-102515220D01*
X177920137Y-102549127D01*
X178010465Y-102578477D01*
X178111557Y-102594488D01*
X178212648Y-102610500D01*
X178212649Y-102610500D01*
X178417351Y-102610500D01*
X178417352Y-102610500D01*
X178619534Y-102578477D01*
X178633842Y-102573827D01*
X178703682Y-102571831D01*
X178759841Y-102604076D01*
X184636284Y-108480520D01*
X184636286Y-108480521D01*
X184636290Y-108480524D01*
X184670026Y-108500001D01*
X184773216Y-108559577D01*
X184925943Y-108600501D01*
X184925945Y-108600501D01*
X185091654Y-108600501D01*
X185091670Y-108600500D01*
X190627404Y-108600500D01*
X190694443Y-108620185D01*
X190727722Y-108651614D01*
X190730475Y-108655403D01*
X190730476Y-108655405D01*
X190846172Y-108814646D01*
X190985354Y-108953828D01*
X191144595Y-109069524D01*
X191227455Y-109111743D01*
X191319970Y-109158882D01*
X191319972Y-109158882D01*
X191319975Y-109158884D01*
X191420317Y-109191487D01*
X191507173Y-109219709D01*
X191701578Y-109250500D01*
X191701583Y-109250500D01*
X191898422Y-109250500D01*
X192092826Y-109219709D01*
X192094328Y-109219221D01*
X192280025Y-109158884D01*
X192455405Y-109069524D01*
X192614646Y-108953828D01*
X192753828Y-108814646D01*
X192869524Y-108655405D01*
X192958884Y-108480025D01*
X193019709Y-108292826D01*
X193035111Y-108195582D01*
X193050500Y-108098422D01*
X193050500Y-107901617D01*
X193950000Y-107901617D01*
X193950000Y-108098382D01*
X193980778Y-108292705D01*
X194041581Y-108479835D01*
X194130905Y-108655145D01*
X194156319Y-108690125D01*
X194156320Y-108690125D01*
X194800000Y-108046445D01*
X194800000Y-108052661D01*
X194827259Y-108154394D01*
X194879920Y-108245606D01*
X194954394Y-108320080D01*
X195045606Y-108372741D01*
X195147339Y-108400000D01*
X195153553Y-108400000D01*
X194509873Y-109043677D01*
X194509873Y-109043678D01*
X194544858Y-109069096D01*
X194720164Y-109158418D01*
X194907294Y-109219221D01*
X195101618Y-109250000D01*
X195298382Y-109250000D01*
X195492705Y-109219221D01*
X195679835Y-109158418D01*
X195855143Y-109069095D01*
X195890125Y-109043678D01*
X195890126Y-109043678D01*
X195246448Y-108400000D01*
X195252661Y-108400000D01*
X195354394Y-108372741D01*
X195445606Y-108320080D01*
X195520080Y-108245606D01*
X195572741Y-108154394D01*
X195600000Y-108052661D01*
X195600000Y-108046448D01*
X196243678Y-108690126D01*
X196243678Y-108690125D01*
X196269095Y-108655143D01*
X196358418Y-108479835D01*
X196419221Y-108292705D01*
X196450000Y-108098382D01*
X196450000Y-107901617D01*
X196419221Y-107707294D01*
X196358418Y-107520164D01*
X196269096Y-107344858D01*
X196243678Y-107309873D01*
X196243677Y-107309873D01*
X195600000Y-107953551D01*
X195600000Y-107947339D01*
X195572741Y-107845606D01*
X195520080Y-107754394D01*
X195445606Y-107679920D01*
X195354394Y-107627259D01*
X195252661Y-107600000D01*
X195246447Y-107600000D01*
X195890125Y-106956320D01*
X195890125Y-106956319D01*
X195855145Y-106930905D01*
X195679835Y-106841581D01*
X195492705Y-106780778D01*
X195298382Y-106750000D01*
X195101618Y-106750000D01*
X194907294Y-106780778D01*
X194720161Y-106841582D01*
X194544863Y-106930899D01*
X194544859Y-106930902D01*
X194509873Y-106956320D01*
X194509872Y-106956320D01*
X195153554Y-107600000D01*
X195147339Y-107600000D01*
X195045606Y-107627259D01*
X194954394Y-107679920D01*
X194879920Y-107754394D01*
X194827259Y-107845606D01*
X194800000Y-107947339D01*
X194800000Y-107953552D01*
X194156320Y-107309872D01*
X194156320Y-107309873D01*
X194130902Y-107344859D01*
X194130899Y-107344863D01*
X194041582Y-107520161D01*
X193980778Y-107707294D01*
X193950000Y-107901617D01*
X193050500Y-107901617D01*
X193050500Y-107901577D01*
X193019709Y-107707173D01*
X192958882Y-107519970D01*
X192911743Y-107427455D01*
X192869524Y-107344595D01*
X192753828Y-107185354D01*
X192614646Y-107046172D01*
X192455405Y-106930476D01*
X192280029Y-106841117D01*
X192092826Y-106780290D01*
X191898422Y-106749500D01*
X191898417Y-106749500D01*
X191701583Y-106749500D01*
X191701578Y-106749500D01*
X191507173Y-106780290D01*
X191319970Y-106841117D01*
X191144594Y-106930476D01*
X191053741Y-106996485D01*
X190985354Y-107046172D01*
X190985352Y-107046174D01*
X190985351Y-107046174D01*
X190846174Y-107185351D01*
X190846174Y-107185352D01*
X190846172Y-107185354D01*
X190730477Y-107344594D01*
X190727722Y-107348386D01*
X190672392Y-107391051D01*
X190627404Y-107399500D01*
X185305098Y-107399500D01*
X185238059Y-107379815D01*
X185217417Y-107363181D01*
X179609077Y-101754842D01*
X179575592Y-101693519D01*
X179578828Y-101628841D01*
X179583477Y-101614534D01*
X179615500Y-101412352D01*
X179615500Y-101207648D01*
X179583477Y-101005466D01*
X179520220Y-100810781D01*
X179520218Y-100810778D01*
X179520218Y-100810776D01*
X179486503Y-100744607D01*
X179427287Y-100628390D01*
X179365967Y-100543989D01*
X179306971Y-100462786D01*
X179255416Y-100411231D01*
X179251082Y-100403294D01*
X179243842Y-100397876D01*
X179234599Y-100373108D01*
X179221931Y-100349908D01*
X179222576Y-100340888D01*
X179219414Y-100332415D01*
X179225029Y-100306581D01*
X179226915Y-100280216D01*
X179232726Y-100271171D01*
X179234255Y-100264140D01*
X179255359Y-100235949D01*
X179255402Y-100235883D01*
X179258585Y-100232698D01*
X179261772Y-100229512D01*
X179261775Y-100229510D01*
X179261779Y-100229505D01*
X179774506Y-99716778D01*
X179774511Y-99716774D01*
X179784714Y-99706570D01*
X179784716Y-99706570D01*
X179896520Y-99594766D01*
X179949914Y-99502284D01*
X179975577Y-99457835D01*
X180016501Y-99305107D01*
X180016501Y-99146993D01*
X180016501Y-99139398D01*
X180016500Y-99139380D01*
X180016500Y-98403009D01*
X180016501Y-98402996D01*
X180016501Y-98234895D01*
X180016501Y-98234893D01*
X179977031Y-98087591D01*
X179978694Y-98017744D01*
X180017856Y-97959881D01*
X180082084Y-97932377D01*
X180096806Y-97931500D01*
X183712331Y-97931500D01*
X183712347Y-97931501D01*
X183719943Y-97931501D01*
X183878054Y-97931501D01*
X183878057Y-97931501D01*
X184030785Y-97890577D01*
X184080904Y-97861639D01*
X184167716Y-97811520D01*
X184279520Y-97699716D01*
X184279520Y-97699714D01*
X184289728Y-97689507D01*
X184289730Y-97689504D01*
X195547392Y-86431841D01*
X195608713Y-86398358D01*
X195678405Y-86403342D01*
X195682524Y-86404963D01*
X195801488Y-86454240D01*
X196028886Y-86515171D01*
X196262291Y-86545900D01*
X196262298Y-86545900D01*
X196497702Y-86545900D01*
X196497709Y-86545900D01*
X196731114Y-86515171D01*
X196958512Y-86454240D01*
X197077475Y-86404962D01*
X197146943Y-86397494D01*
X197209422Y-86428768D01*
X197212608Y-86431843D01*
X198435139Y-87654374D01*
X198435149Y-87654385D01*
X198439479Y-87658715D01*
X198439480Y-87658716D01*
X198551284Y-87770520D01*
X198551286Y-87770521D01*
X198551290Y-87770524D01*
X198652672Y-87829056D01*
X198688216Y-87849577D01*
X198800019Y-87879534D01*
X198840942Y-87890500D01*
X198840943Y-87890500D01*
X202222014Y-87890500D01*
X202289053Y-87910185D01*
X202334808Y-87962989D01*
X202336575Y-87967048D01*
X202385845Y-88085998D01*
X202385852Y-88086013D01*
X202503559Y-88289888D01*
X202646872Y-88476658D01*
X202646878Y-88476665D01*
X202813334Y-88643121D01*
X202813341Y-88643127D01*
X203000111Y-88786440D01*
X203203986Y-88904147D01*
X203203987Y-88904147D01*
X203203990Y-88904149D01*
X203421488Y-88994240D01*
X203648886Y-89055171D01*
X203882291Y-89085900D01*
X203882298Y-89085900D01*
X204117702Y-89085900D01*
X204117709Y-89085900D01*
X204351114Y-89055171D01*
X204578512Y-88994240D01*
X204796010Y-88904149D01*
X204999889Y-88786440D01*
X205186660Y-88643126D01*
X205353126Y-88476660D01*
X205496440Y-88289889D01*
X205614149Y-88086010D01*
X205704240Y-87868512D01*
X205765171Y-87641114D01*
X205795900Y-87407709D01*
X205795900Y-87172291D01*
X205765171Y-86938886D01*
X205704240Y-86711488D01*
X205614149Y-86493990D01*
X205591199Y-86454240D01*
X205496440Y-86290111D01*
X205353127Y-86103341D01*
X205353121Y-86103334D01*
X205186665Y-85936878D01*
X205186658Y-85936872D01*
X204999888Y-85793559D01*
X204796020Y-85675856D01*
X204796013Y-85675853D01*
X204796014Y-85675853D01*
X204796010Y-85675851D01*
X204677045Y-85626573D01*
X204622643Y-85582732D01*
X204600579Y-85516437D01*
X204600500Y-85512013D01*
X204600500Y-83987986D01*
X204620185Y-83920947D01*
X204672989Y-83875192D01*
X204677048Y-83873425D01*
X204795998Y-83824154D01*
X204795998Y-83824153D01*
X204796010Y-83824149D01*
X204999889Y-83706440D01*
X205186660Y-83563126D01*
X205353126Y-83396660D01*
X205496440Y-83209889D01*
X205614149Y-83006010D01*
X205704240Y-82788512D01*
X205765171Y-82561114D01*
X205795900Y-82327709D01*
X205795900Y-82092291D01*
X205765171Y-81858886D01*
X205704240Y-81631488D01*
X205614149Y-81413990D01*
X205496440Y-81210111D01*
X205353126Y-81023340D01*
X205353121Y-81023334D01*
X205186665Y-80856878D01*
X205186658Y-80856872D01*
X204999888Y-80713559D01*
X204796013Y-80595852D01*
X204796003Y-80595848D01*
X204578510Y-80505759D01*
X204472974Y-80477481D01*
X204351114Y-80444829D01*
X204299246Y-80438000D01*
X204117716Y-80414100D01*
X204117709Y-80414100D01*
X203882291Y-80414100D01*
X203882283Y-80414100D01*
X203674819Y-80441414D01*
X203648886Y-80444829D01*
X203587956Y-80461155D01*
X203421489Y-80505759D01*
X203203996Y-80595848D01*
X203203986Y-80595852D01*
X203000111Y-80713559D01*
X202813341Y-80856872D01*
X202813334Y-80856878D01*
X202646878Y-81023334D01*
X202646872Y-81023341D01*
X202503559Y-81210111D01*
X202385852Y-81413986D01*
X202385848Y-81413996D01*
X202295759Y-81631489D01*
X202234829Y-81858887D01*
X202204100Y-82092283D01*
X202204100Y-82327716D01*
X202217060Y-82426149D01*
X202234829Y-82561114D01*
X202266472Y-82679209D01*
X202295759Y-82788510D01*
X202385848Y-83006003D01*
X202385852Y-83006013D01*
X202503559Y-83209888D01*
X202646872Y-83396658D01*
X202646878Y-83396665D01*
X202813334Y-83563121D01*
X202813341Y-83563127D01*
X203000111Y-83706440D01*
X203203986Y-83824147D01*
X203204001Y-83824154D01*
X203322952Y-83873425D01*
X203377356Y-83917266D01*
X203399421Y-83983560D01*
X203399500Y-83987986D01*
X203399500Y-85512013D01*
X203379815Y-85579052D01*
X203327011Y-85624807D01*
X203322962Y-85626570D01*
X203203990Y-85675851D01*
X203203987Y-85675852D01*
X203203986Y-85675853D01*
X203203979Y-85675856D01*
X203000111Y-85793559D01*
X202813341Y-85936872D01*
X202813334Y-85936878D01*
X202646878Y-86103334D01*
X202646872Y-86103341D01*
X202503559Y-86290111D01*
X202385852Y-86493986D01*
X202385845Y-86494001D01*
X202336575Y-86612952D01*
X202292734Y-86667356D01*
X202226440Y-86689421D01*
X202222014Y-86689500D01*
X199220097Y-86689500D01*
X199153058Y-86669815D01*
X199132416Y-86653181D01*
X198061843Y-85582608D01*
X198028358Y-85521285D01*
X198033342Y-85451593D01*
X198034947Y-85447512D01*
X198084240Y-85328512D01*
X198145171Y-85101114D01*
X198175900Y-84867709D01*
X198175900Y-84632291D01*
X198145171Y-84398886D01*
X198084240Y-84171488D01*
X197994149Y-83953990D01*
X197980965Y-83931155D01*
X197876440Y-83750111D01*
X197733127Y-83563341D01*
X197733121Y-83563334D01*
X197566665Y-83396878D01*
X197566658Y-83396872D01*
X197379888Y-83253559D01*
X197176013Y-83135852D01*
X197176003Y-83135848D01*
X196958510Y-83045759D01*
X196852974Y-83017481D01*
X196731114Y-82984829D01*
X196679246Y-82978000D01*
X196497716Y-82954100D01*
X196497709Y-82954100D01*
X196262291Y-82954100D01*
X196262283Y-82954100D01*
X196054819Y-82981414D01*
X196028886Y-82984829D01*
X196009334Y-82990068D01*
X195801489Y-83045759D01*
X195583996Y-83135848D01*
X195583986Y-83135852D01*
X195380111Y-83253559D01*
X195193341Y-83396872D01*
X195193334Y-83396878D01*
X195026878Y-83563334D01*
X195026872Y-83563341D01*
X194883559Y-83750111D01*
X194765852Y-83953986D01*
X194765848Y-83953996D01*
X194675759Y-84171489D01*
X194614829Y-84398887D01*
X194584100Y-84632283D01*
X194584100Y-84867716D01*
X194592513Y-84931613D01*
X194614829Y-85101114D01*
X194647481Y-85222974D01*
X194675758Y-85328507D01*
X194675760Y-85328512D01*
X194706868Y-85403614D01*
X194725036Y-85447473D01*
X194732505Y-85516942D01*
X194701230Y-85579422D01*
X194698156Y-85582607D01*
X183586584Y-96694181D01*
X183525261Y-96727666D01*
X183498903Y-96730500D01*
X179690476Y-96730500D01*
X179623437Y-96710815D01*
X179577682Y-96658011D01*
X179567738Y-96588853D01*
X179572545Y-96568183D01*
X179583475Y-96534542D01*
X179583475Y-96534538D01*
X179583477Y-96534534D01*
X179615500Y-96332352D01*
X179615500Y-96127648D01*
X179583477Y-95925466D01*
X179578825Y-95911151D01*
X179576832Y-95841312D01*
X179609075Y-95785158D01*
X187391520Y-88002716D01*
X187470577Y-87865784D01*
X187511501Y-87713057D01*
X187511501Y-87554942D01*
X187511501Y-87547347D01*
X187511500Y-87547329D01*
X187511500Y-82831945D01*
X187511500Y-82831943D01*
X187470577Y-82679216D01*
X187470573Y-82679209D01*
X187391524Y-82542290D01*
X187391521Y-82542286D01*
X187391520Y-82542284D01*
X187279716Y-82430480D01*
X187279715Y-82430479D01*
X187275385Y-82426149D01*
X187275374Y-82426139D01*
X177794077Y-72944842D01*
X177760592Y-72883519D01*
X177763828Y-72818841D01*
X177768477Y-72804534D01*
X177800500Y-72602352D01*
X177800500Y-72397648D01*
X177768477Y-72195466D01*
X177705220Y-72000781D01*
X177705218Y-72000778D01*
X177705218Y-72000776D01*
X177671503Y-71934607D01*
X177612287Y-71818390D01*
X177604556Y-71807749D01*
X177491971Y-71652786D01*
X177347213Y-71508028D01*
X177181613Y-71387715D01*
X177181612Y-71387714D01*
X177181610Y-71387713D01*
X177124653Y-71358691D01*
X176999223Y-71294781D01*
X176804534Y-71231522D01*
X176629995Y-71203878D01*
X176602352Y-71199500D01*
X176397648Y-71199500D01*
X176373329Y-71203351D01*
X176195465Y-71231522D01*
X176000776Y-71294781D01*
X175818386Y-71387715D01*
X175652786Y-71508028D01*
X175508028Y-71652786D01*
X175387715Y-71818386D01*
X175294781Y-72000776D01*
X175231522Y-72195465D01*
X175199500Y-72397648D01*
X175199500Y-72602351D01*
X175231522Y-72804534D01*
X175294781Y-72999223D01*
X175387715Y-73181613D01*
X175508028Y-73347213D01*
X175652786Y-73491971D01*
X175807749Y-73604556D01*
X175818390Y-73612287D01*
X175899499Y-73653614D01*
X176000776Y-73705218D01*
X176000778Y-73705218D01*
X176000781Y-73705220D01*
X176075818Y-73729601D01*
X176195465Y-73768477D01*
X176296557Y-73784488D01*
X176397648Y-73800500D01*
X176397649Y-73800500D01*
X176602351Y-73800500D01*
X176602352Y-73800500D01*
X176804534Y-73768477D01*
X176818842Y-73763827D01*
X176888682Y-73761831D01*
X176944842Y-73794077D01*
X185888584Y-82737819D01*
X185922069Y-82799142D01*
X185917085Y-82868834D01*
X185875213Y-82924767D01*
X185809749Y-82949184D01*
X185800903Y-82949500D01*
X185707648Y-82949500D01*
X185683329Y-82953351D01*
X185505465Y-82981522D01*
X185310776Y-83044781D01*
X185128386Y-83137715D01*
X184962786Y-83258028D01*
X184818028Y-83402786D01*
X184697715Y-83568386D01*
X184604781Y-83750776D01*
X184541522Y-83945465D01*
X184509500Y-84147648D01*
X184509500Y-84352351D01*
X184541522Y-84554534D01*
X184604781Y-84749223D01*
X184697715Y-84931613D01*
X184818028Y-85097213D01*
X184818034Y-85097219D01*
X184962781Y-85241966D01*
X185128390Y-85362287D01*
X185141793Y-85369116D01*
X185192589Y-85417088D01*
X185209500Y-85479601D01*
X185209500Y-85894902D01*
X185189815Y-85961941D01*
X185173181Y-85982583D01*
X178759842Y-92395921D01*
X178698519Y-92429406D01*
X178633848Y-92426173D01*
X178619534Y-92421522D01*
X178444995Y-92393878D01*
X178417352Y-92389500D01*
X178212648Y-92389500D01*
X178172108Y-92395921D01*
X178010464Y-92421523D01*
X178010457Y-92421524D01*
X177976817Y-92432455D01*
X177906976Y-92434450D01*
X177847144Y-92398369D01*
X177816316Y-92335668D01*
X177814500Y-92314524D01*
X177814500Y-85652422D01*
X177834185Y-85585383D01*
X177886989Y-85539628D01*
X177956147Y-85529684D01*
X177957857Y-85529942D01*
X178087648Y-85550500D01*
X178087649Y-85550500D01*
X178292351Y-85550500D01*
X178292352Y-85550500D01*
X178494534Y-85518477D01*
X178689219Y-85455220D01*
X178871610Y-85362287D01*
X178964590Y-85294732D01*
X179037213Y-85241971D01*
X179037215Y-85241968D01*
X179037219Y-85241966D01*
X179181966Y-85097219D01*
X179181968Y-85097215D01*
X179181971Y-85097213D01*
X179234732Y-85024590D01*
X179302287Y-84931610D01*
X179395220Y-84749219D01*
X179458477Y-84554534D01*
X179490500Y-84352352D01*
X179490500Y-84147648D01*
X179459827Y-83953990D01*
X179458477Y-83945465D01*
X179395218Y-83750776D01*
X179361503Y-83684607D01*
X179302287Y-83568390D01*
X179294556Y-83557749D01*
X179181971Y-83402786D01*
X179037213Y-83258028D01*
X178871613Y-83137715D01*
X178871612Y-83137714D01*
X178871610Y-83137713D01*
X178814653Y-83108691D01*
X178689223Y-83044781D01*
X178494534Y-82981522D01*
X178319995Y-82953878D01*
X178292352Y-82949500D01*
X178087648Y-82949500D01*
X178058605Y-82954100D01*
X177885468Y-82981522D01*
X177876717Y-82984365D01*
X177871154Y-82986173D01*
X177801313Y-82988167D01*
X177745157Y-82955922D01*
X169516819Y-74727584D01*
X169483334Y-74666261D01*
X169480500Y-74639903D01*
X169480500Y-73729601D01*
X169500185Y-73662562D01*
X169548206Y-73619116D01*
X169561610Y-73612287D01*
X169727219Y-73491966D01*
X169871966Y-73347219D01*
X169871968Y-73347215D01*
X169871971Y-73347213D01*
X169924732Y-73274590D01*
X169992287Y-73181610D01*
X170085220Y-72999219D01*
X170148477Y-72804534D01*
X170180500Y-72602352D01*
X170180500Y-72397648D01*
X170148477Y-72195466D01*
X170085220Y-72000781D01*
X170085218Y-72000778D01*
X170085218Y-72000776D01*
X170051503Y-71934607D01*
X169992287Y-71818390D01*
X169984556Y-71807749D01*
X169871971Y-71652786D01*
X169727213Y-71508028D01*
X169561613Y-71387715D01*
X169561612Y-71387714D01*
X169561610Y-71387713D01*
X169504653Y-71358691D01*
X169379223Y-71294781D01*
X169184534Y-71231522D01*
X169009995Y-71203878D01*
X168982352Y-71199500D01*
X168777648Y-71199500D01*
X168753329Y-71203351D01*
X168575465Y-71231522D01*
X168380776Y-71294781D01*
X168198386Y-71387715D01*
X168032786Y-71508028D01*
X167888028Y-71652786D01*
X167767715Y-71818386D01*
X167674781Y-72000776D01*
X167611522Y-72195465D01*
X167579500Y-72397648D01*
X167579500Y-72490903D01*
X167559815Y-72557942D01*
X167507011Y-72603697D01*
X167437853Y-72613641D01*
X167374297Y-72584616D01*
X167367819Y-72578584D01*
X161677590Y-66888355D01*
X161677588Y-66888352D01*
X161558717Y-66769481D01*
X161558716Y-66769480D01*
X161471904Y-66719360D01*
X161471904Y-66719359D01*
X161471900Y-66719358D01*
X161421785Y-66690423D01*
X161269057Y-66649499D01*
X161110943Y-66649499D01*
X161103347Y-66649499D01*
X161103331Y-66649500D01*
X112586669Y-66649500D01*
X112586653Y-66649499D01*
X112579057Y-66649499D01*
X112420943Y-66649499D01*
X112313587Y-66678265D01*
X112268210Y-66690424D01*
X112268209Y-66690425D01*
X112218096Y-66719359D01*
X112218095Y-66719360D01*
X112174689Y-66744420D01*
X112131285Y-66769479D01*
X112131282Y-66769481D01*
X112019481Y-66881282D01*
X112019479Y-66881285D01*
X111969361Y-66968094D01*
X111969359Y-66968096D01*
X111940425Y-67018209D01*
X111940424Y-67018210D01*
X111940423Y-67018215D01*
X111899499Y-67170943D01*
X111899499Y-67170945D01*
X111899499Y-67329054D01*
X111899498Y-67329054D01*
X111940423Y-67481785D01*
X111969358Y-67531900D01*
X111969359Y-67531904D01*
X111969360Y-67531904D01*
X112019479Y-67618714D01*
X112019481Y-67618717D01*
X112138349Y-67737585D01*
X112138355Y-67737590D01*
X112803181Y-68402416D01*
X112836666Y-68463739D01*
X112839500Y-68490097D01*
X112839500Y-74770397D01*
X112819815Y-74837436D01*
X112771800Y-74880879D01*
X112758389Y-74887712D01*
X112592786Y-75008028D01*
X112448028Y-75152786D01*
X112327715Y-75318386D01*
X112234781Y-75500776D01*
X112171522Y-75695465D01*
X112139500Y-75897648D01*
X112139500Y-76102351D01*
X112171522Y-76304534D01*
X112234781Y-76499223D01*
X112292391Y-76612287D01*
X112303668Y-76634420D01*
X112327715Y-76681613D01*
X112448028Y-76847213D01*
X112448034Y-76847219D01*
X112592781Y-76991966D01*
X112758390Y-77112287D01*
X112771793Y-77119116D01*
X112822589Y-77167088D01*
X112839500Y-77229601D01*
X112839500Y-87449902D01*
X112819815Y-87516941D01*
X112803181Y-87537583D01*
X111884842Y-88455921D01*
X111823519Y-88489406D01*
X111758848Y-88486173D01*
X111744534Y-88481522D01*
X111569995Y-88453878D01*
X111542352Y-88449500D01*
X111337648Y-88449500D01*
X111313329Y-88453351D01*
X111135465Y-88481522D01*
X110940776Y-88544781D01*
X110758386Y-88637715D01*
X110592786Y-88758028D01*
X110448028Y-88902786D01*
X110327715Y-89068386D01*
X110234781Y-89250776D01*
X110171522Y-89445465D01*
X110139500Y-89647648D01*
X110139500Y-89852351D01*
X110171522Y-90054534D01*
X110234781Y-90249223D01*
X110327715Y-90431613D01*
X110448028Y-90597213D01*
X110592786Y-90741971D01*
X110747749Y-90854556D01*
X110758390Y-90862287D01*
X110874607Y-90921503D01*
X110940776Y-90955218D01*
X110940778Y-90955218D01*
X110940781Y-90955220D01*
X111045137Y-90989127D01*
X111135465Y-91018477D01*
X111236557Y-91034488D01*
X111337648Y-91050500D01*
X111337649Y-91050500D01*
X111542351Y-91050500D01*
X111542352Y-91050500D01*
X111744534Y-91018477D01*
X111939219Y-90955220D01*
X112121610Y-90862287D01*
X112214590Y-90794732D01*
X112287213Y-90741971D01*
X112287215Y-90741968D01*
X112287219Y-90741966D01*
X112431966Y-90597219D01*
X112431968Y-90597215D01*
X112431971Y-90597213D01*
X112484732Y-90524590D01*
X112552287Y-90431610D01*
X112645220Y-90249219D01*
X112708477Y-90054534D01*
X112740500Y-89852352D01*
X112740500Y-89647648D01*
X112708477Y-89445466D01*
X112703825Y-89431151D01*
X112701832Y-89361312D01*
X112734075Y-89305158D01*
X113798506Y-88240728D01*
X113798511Y-88240724D01*
X113808714Y-88230520D01*
X113808716Y-88230520D01*
X113920520Y-88118716D01*
X113939410Y-88085998D01*
X113987491Y-88002719D01*
X113987492Y-88002717D01*
X113992395Y-87994222D01*
X113999577Y-87981785D01*
X114040500Y-87829057D01*
X114040500Y-87670943D01*
X114040500Y-77229601D01*
X114060185Y-77162562D01*
X114108206Y-77119116D01*
X114121610Y-77112287D01*
X114287219Y-76991966D01*
X114431966Y-76847219D01*
X114431968Y-76847215D01*
X114431971Y-76847213D01*
X114492553Y-76763828D01*
X114552287Y-76681610D01*
X114645220Y-76499219D01*
X114708477Y-76304534D01*
X114740500Y-76102352D01*
X114740500Y-75897648D01*
X114708477Y-75695466D01*
X114695663Y-75656030D01*
X114645218Y-75500776D01*
X114592688Y-75397682D01*
X114552287Y-75318390D01*
X114505792Y-75254394D01*
X114431971Y-75152786D01*
X114287213Y-75008028D01*
X114121610Y-74887712D01*
X114108200Y-74880879D01*
X114057406Y-74832903D01*
X114040500Y-74770397D01*
X114040500Y-68279060D01*
X114040501Y-68279047D01*
X114040501Y-68110944D01*
X114012540Y-68006594D01*
X114014203Y-67936744D01*
X114053365Y-67878881D01*
X114117593Y-67851377D01*
X114132315Y-67850500D01*
X160889903Y-67850500D01*
X160956942Y-67870185D01*
X160977584Y-67886819D01*
X168399478Y-75308713D01*
X168399480Y-75308716D01*
X168511284Y-75420520D01*
X168511286Y-75420521D01*
X176895922Y-83805157D01*
X176929407Y-83866480D01*
X176926173Y-83931155D01*
X176921522Y-83945468D01*
X176889500Y-84147648D01*
X176889500Y-84352351D01*
X176921522Y-84554534D01*
X176926173Y-84568848D01*
X176926606Y-84584058D01*
X176931924Y-84598314D01*
X176927582Y-84618272D01*
X176928165Y-84638690D01*
X176920077Y-84652774D01*
X176917073Y-84666587D01*
X176895922Y-84694841D01*
X176845287Y-84745477D01*
X176845286Y-84745478D01*
X173200531Y-88390232D01*
X173200530Y-88390234D01*
X173166313Y-88449500D01*
X173145140Y-88486173D01*
X173125381Y-88520397D01*
X173121473Y-88527165D01*
X173080549Y-88679893D01*
X173080549Y-88679895D01*
X173080549Y-88847996D01*
X173080550Y-88848009D01*
X173080550Y-92386952D01*
X173060865Y-92453991D01*
X173008061Y-92499746D01*
X172938903Y-92509690D01*
X172875347Y-92480665D01*
X172868869Y-92474633D01*
X158032590Y-77638355D01*
X158032588Y-77638352D01*
X157913717Y-77519481D01*
X157913716Y-77519480D01*
X157826904Y-77469360D01*
X157826904Y-77469359D01*
X157826900Y-77469358D01*
X157776785Y-77440423D01*
X157624057Y-77399499D01*
X157465943Y-77399499D01*
X157458347Y-77399499D01*
X157458331Y-77399500D01*
X141050097Y-77399500D01*
X140983058Y-77379815D01*
X140962416Y-77363181D01*
X133487590Y-69888355D01*
X133487588Y-69888352D01*
X133368717Y-69769481D01*
X133368716Y-69769480D01*
X133281904Y-69719360D01*
X133281904Y-69719359D01*
X133281900Y-69719358D01*
X133231785Y-69690423D01*
X133079057Y-69649499D01*
X132920943Y-69649499D01*
X132913347Y-69649499D01*
X132913331Y-69649500D01*
X115920943Y-69649500D01*
X115768216Y-69690423D01*
X115768209Y-69690426D01*
X115631290Y-69769475D01*
X115631282Y-69769481D01*
X115519481Y-69881282D01*
X115519475Y-69881290D01*
X115440426Y-70018209D01*
X115440423Y-70018216D01*
X115399500Y-70170943D01*
X115399500Y-93889902D01*
X115379815Y-93956941D01*
X115363181Y-93977583D01*
X111134842Y-98205921D01*
X111073519Y-98239406D01*
X111008848Y-98236173D01*
X110994534Y-98231522D01*
X110819995Y-98203878D01*
X110792352Y-98199500D01*
X110587648Y-98199500D01*
X110563329Y-98203351D01*
X110385465Y-98231522D01*
X110190776Y-98294781D01*
X110008386Y-98387715D01*
X109842786Y-98508028D01*
X109698028Y-98652786D01*
X109577715Y-98818386D01*
X109484781Y-99000776D01*
X109421522Y-99195465D01*
X109389500Y-99397648D01*
X100383322Y-99397648D01*
X104487985Y-61610609D01*
X104514794Y-61546087D01*
X104572231Y-61506302D01*
X104611260Y-61500000D01*
X207382447Y-61500000D01*
X207449486Y-61519685D01*
G37*
%TD.AperFunction*%
%TD*%
M02*
